%TF.GenerationSoftware,KiCad,Pcbnew,9.0.3*%
%TF.CreationDate,2025-07-30T10:18:58+02:00*%
%TF.ProjectId,Filament dryer oven control board,46696c61-6d65-46e7-9420-647279657220,1.0*%
%TF.SameCoordinates,Original*%
%TF.FileFunction,Copper,L1,Top*%
%TF.FilePolarity,Positive*%
%FSLAX46Y46*%
G04 Gerber Fmt 4.6, Leading zero omitted, Abs format (unit mm)*
G04 Created by KiCad (PCBNEW 9.0.3) date 2025-07-30 10:18:58*
%MOMM*%
%LPD*%
G01*
G04 APERTURE LIST*
G04 Aperture macros list*
%AMRoundRect*
0 Rectangle with rounded corners*
0 $1 Rounding radius*
0 $2 $3 $4 $5 $6 $7 $8 $9 X,Y pos of 4 corners*
0 Add a 4 corners polygon primitive as box body*
4,1,4,$2,$3,$4,$5,$6,$7,$8,$9,$2,$3,0*
0 Add four circle primitives for the rounded corners*
1,1,$1+$1,$2,$3*
1,1,$1+$1,$4,$5*
1,1,$1+$1,$6,$7*
1,1,$1+$1,$8,$9*
0 Add four rect primitives between the rounded corners*
20,1,$1+$1,$2,$3,$4,$5,0*
20,1,$1+$1,$4,$5,$6,$7,0*
20,1,$1+$1,$6,$7,$8,$9,0*
20,1,$1+$1,$8,$9,$2,$3,0*%
%AMFreePoly0*
4,1,23,0.500000,-0.750000,0.000000,-0.750000,0.000000,-0.745722,-0.065263,-0.745722,-0.191342,-0.711940,-0.304381,-0.646677,-0.396677,-0.554381,-0.461940,-0.441342,-0.495722,-0.315263,-0.495722,-0.250000,-0.500000,-0.250000,-0.500000,0.250000,-0.495722,0.250000,-0.495722,0.315263,-0.461940,0.441342,-0.396677,0.554381,-0.304381,0.646677,-0.191342,0.711940,-0.065263,0.745722,0.000000,0.745722,
0.000000,0.750000,0.500000,0.750000,0.500000,-0.750000,0.500000,-0.750000,$1*%
%AMFreePoly1*
4,1,23,0.000000,0.745722,0.065263,0.745722,0.191342,0.711940,0.304381,0.646677,0.396677,0.554381,0.461940,0.441342,0.495722,0.315263,0.495722,0.250000,0.500000,0.250000,0.500000,-0.250000,0.495722,-0.250000,0.495722,-0.315263,0.461940,-0.441342,0.396677,-0.554381,0.304381,-0.646677,0.191342,-0.711940,0.065263,-0.745722,0.000000,-0.745722,0.000000,-0.750000,-0.500000,-0.750000,
-0.500000,0.750000,0.000000,0.750000,0.000000,0.745722,0.000000,0.745722,$1*%
G04 Aperture macros list end*
%TA.AperFunction,SMDPad,CuDef*%
%ADD10R,1.150000X0.600000*%
%TD*%
%TA.AperFunction,SMDPad,CuDef*%
%ADD11R,1.150000X0.300000*%
%TD*%
%TA.AperFunction,SMDPad,CuDef*%
%ADD12RoundRect,0.250000X0.687500X0.250000X-0.687500X0.250000X-0.687500X-0.250000X0.687500X-0.250000X0*%
%TD*%
%TA.AperFunction,ComponentPad*%
%ADD13O,2.500000X1.250000*%
%TD*%
%TA.AperFunction,ComponentPad*%
%ADD14C,0.800000*%
%TD*%
%TA.AperFunction,ComponentPad*%
%ADD15C,6.400000*%
%TD*%
%TA.AperFunction,SMDPad,CuDef*%
%ADD16RoundRect,0.250000X0.337500X0.475000X-0.337500X0.475000X-0.337500X-0.475000X0.337500X-0.475000X0*%
%TD*%
%TA.AperFunction,SMDPad,CuDef*%
%ADD17RoundRect,0.250000X-0.450000X0.350000X-0.450000X-0.350000X0.450000X-0.350000X0.450000X0.350000X0*%
%TD*%
%TA.AperFunction,ComponentPad*%
%ADD18R,1.000000X1.000000*%
%TD*%
%TA.AperFunction,ComponentPad*%
%ADD19R,1.700000X1.700000*%
%TD*%
%TA.AperFunction,ComponentPad*%
%ADD20C,1.700000*%
%TD*%
%TA.AperFunction,SMDPad,CuDef*%
%ADD21R,1.300000X1.200000*%
%TD*%
%TA.AperFunction,SMDPad,CuDef*%
%ADD22R,1.200000X0.900000*%
%TD*%
%TA.AperFunction,SMDPad,CuDef*%
%ADD23RoundRect,0.150000X0.150000X-0.587500X0.150000X0.587500X-0.150000X0.587500X-0.150000X-0.587500X0*%
%TD*%
%TA.AperFunction,SMDPad,CuDef*%
%ADD24RoundRect,0.250000X0.300000X-0.300000X0.300000X0.300000X-0.300000X0.300000X-0.300000X-0.300000X0*%
%TD*%
%TA.AperFunction,SMDPad,CuDef*%
%ADD25RoundRect,0.250000X0.450000X-0.350000X0.450000X0.350000X-0.450000X0.350000X-0.450000X-0.350000X0*%
%TD*%
%TA.AperFunction,SMDPad,CuDef*%
%ADD26RoundRect,0.150000X0.512500X0.150000X-0.512500X0.150000X-0.512500X-0.150000X0.512500X-0.150000X0*%
%TD*%
%TA.AperFunction,ComponentPad*%
%ADD27R,3.000000X3.000000*%
%TD*%
%TA.AperFunction,ComponentPad*%
%ADD28C,3.000000*%
%TD*%
%TA.AperFunction,SMDPad,CuDef*%
%ADD29RoundRect,0.250000X0.325000X0.450000X-0.325000X0.450000X-0.325000X-0.450000X0.325000X-0.450000X0*%
%TD*%
%TA.AperFunction,ComponentPad*%
%ADD30R,2.000000X2.000000*%
%TD*%
%TA.AperFunction,ComponentPad*%
%ADD31C,2.000000*%
%TD*%
%TA.AperFunction,SMDPad,CuDef*%
%ADD32RoundRect,0.250000X-0.475000X0.337500X-0.475000X-0.337500X0.475000X-0.337500X0.475000X0.337500X0*%
%TD*%
%TA.AperFunction,SMDPad,CuDef*%
%ADD33RoundRect,0.250000X0.350000X0.450000X-0.350000X0.450000X-0.350000X-0.450000X0.350000X-0.450000X0*%
%TD*%
%TA.AperFunction,SMDPad,CuDef*%
%ADD34R,1.100000X1.800000*%
%TD*%
%TA.AperFunction,SMDPad,CuDef*%
%ADD35RoundRect,0.250000X-0.337500X-0.475000X0.337500X-0.475000X0.337500X0.475000X-0.337500X0.475000X0*%
%TD*%
%TA.AperFunction,ComponentPad*%
%ADD36RoundRect,0.250000X0.600000X0.750000X-0.600000X0.750000X-0.600000X-0.750000X0.600000X-0.750000X0*%
%TD*%
%TA.AperFunction,ComponentPad*%
%ADD37O,1.700000X2.000000*%
%TD*%
%TA.AperFunction,SMDPad,CuDef*%
%ADD38RoundRect,0.250000X-0.450000X0.325000X-0.450000X-0.325000X0.450000X-0.325000X0.450000X0.325000X0*%
%TD*%
%TA.AperFunction,ComponentPad*%
%ADD39RoundRect,0.250000X-0.600000X-0.750000X0.600000X-0.750000X0.600000X0.750000X-0.600000X0.750000X0*%
%TD*%
%TA.AperFunction,SMDPad,CuDef*%
%ADD40RoundRect,0.250000X-0.350000X-0.450000X0.350000X-0.450000X0.350000X0.450000X-0.350000X0.450000X0*%
%TD*%
%TA.AperFunction,SMDPad,CuDef*%
%ADD41RoundRect,0.250000X0.475000X-0.337500X0.475000X0.337500X-0.475000X0.337500X-0.475000X-0.337500X0*%
%TD*%
%TA.AperFunction,SMDPad,CuDef*%
%ADD42RoundRect,0.150000X0.675000X0.150000X-0.675000X0.150000X-0.675000X-0.150000X0.675000X-0.150000X0*%
%TD*%
%TA.AperFunction,SMDPad,CuDef*%
%ADD43RoundRect,0.150000X-0.725000X-0.150000X0.725000X-0.150000X0.725000X0.150000X-0.725000X0.150000X0*%
%TD*%
%TA.AperFunction,SMDPad,CuDef*%
%ADD44RoundRect,0.075000X-0.662500X-0.075000X0.662500X-0.075000X0.662500X0.075000X-0.662500X0.075000X0*%
%TD*%
%TA.AperFunction,SMDPad,CuDef*%
%ADD45RoundRect,0.075000X-0.075000X-0.662500X0.075000X-0.662500X0.075000X0.662500X-0.075000X0.662500X0*%
%TD*%
%TA.AperFunction,SMDPad,CuDef*%
%ADD46FreePoly0,0.000000*%
%TD*%
%TA.AperFunction,SMDPad,CuDef*%
%ADD47FreePoly1,0.000000*%
%TD*%
%TA.AperFunction,ViaPad*%
%ADD48C,0.800000*%
%TD*%
%TA.AperFunction,ViaPad*%
%ADD49C,0.600000*%
%TD*%
%TA.AperFunction,Conductor*%
%ADD50C,0.500000*%
%TD*%
%TA.AperFunction,Conductor*%
%ADD51C,1.000000*%
%TD*%
%TA.AperFunction,Conductor*%
%ADD52C,0.250000*%
%TD*%
%TA.AperFunction,Conductor*%
%ADD53C,0.200000*%
%TD*%
G04 APERTURE END LIST*
D10*
%TO.P,J1,1,GND_1*%
%TO.N,GND*%
X153632500Y-79200000D03*
%TO.P,J1,2,VBUS*%
%TO.N,/VBUS*%
X153632500Y-78400000D03*
D11*
%TO.P,J1,3,SBU2*%
%TO.N,unconnected-(J1-SBU2-Pad3)*%
X153632500Y-77750000D03*
%TO.P,J1,4,CC1*%
%TO.N,/CC1*%
X153632500Y-77250000D03*
%TO.P,J1,5,DN2*%
%TO.N,/D-*%
X153632500Y-76750000D03*
%TO.P,J1,6,DP1*%
%TO.N,/D+*%
X153632500Y-76250000D03*
%TO.P,J1,7,DN1*%
%TO.N,/D-*%
X153632500Y-75750000D03*
%TO.P,J1,8,DP2*%
%TO.N,/D+*%
X153632500Y-75250000D03*
%TO.P,J1,9,SBU1*%
%TO.N,unconnected-(J1-SBU1-Pad9)*%
X153632500Y-74750000D03*
%TO.P,J1,10,CC2*%
%TO.N,/CC2*%
X153632500Y-74250000D03*
D10*
%TO.P,J1,11,VBUS*%
%TO.N,/VBUS*%
X153632500Y-73600000D03*
%TO.P,J1,12,GND_2*%
%TO.N,GND*%
X153632500Y-72800000D03*
D12*
%TO.P,J1,13,SHIELD*%
X154187500Y-81150000D03*
X158437500Y-81150000D03*
D13*
X154207500Y-80320000D03*
X158387500Y-80320000D03*
X154207500Y-71680000D03*
X158387500Y-71680000D03*
D12*
X154237500Y-70850000D03*
X158387500Y-70850000D03*
%TD*%
D14*
%TO.P,H2,1*%
%TO.N,N/C*%
X153600000Y-54000000D03*
X154302944Y-52302944D03*
X154302944Y-55697056D03*
X156000000Y-51600000D03*
D15*
X156000000Y-54000000D03*
D14*
X156000000Y-56400000D03*
X157697056Y-52302944D03*
X157697056Y-55697056D03*
X158400000Y-54000000D03*
%TD*%
D16*
%TO.P,C8,1*%
%TO.N,+5V*%
X105537500Y-69500000D03*
%TO.P,C8,2*%
%TO.N,GND*%
X103462500Y-69500000D03*
%TD*%
D17*
%TO.P,R14,1*%
%TO.N,+3V3*%
X118500000Y-76500000D03*
%TO.P,R14,2*%
%TO.N,Net-(J11-Pin_1)*%
X118500000Y-78500000D03*
%TD*%
D18*
%TO.P,TP1,1,1*%
%TO.N,/HEATER_CONN*%
X118000000Y-59000000D03*
%TD*%
D17*
%TO.P,R13,1*%
%TO.N,/NTC*%
X124500000Y-76750000D03*
%TO.P,R13,2*%
%TO.N,Net-(J11-Pin_1)*%
X124500000Y-78750000D03*
%TD*%
D19*
%TO.P,J2,1,Pin_1*%
%TO.N,+3V3*%
X145000000Y-80500000D03*
D20*
%TO.P,J2,2,Pin_2*%
%TO.N,/SWCLK{slash}BOOT0*%
X142460000Y-80500000D03*
%TO.P,J2,3,Pin_3*%
%TO.N,GND*%
X139920000Y-80500000D03*
%TO.P,J2,4,Pin_4*%
%TO.N,/SWDIO*%
X137380000Y-80500000D03*
%TO.P,J2,5,Pin_5*%
%TO.N,/NRST*%
X134840000Y-80500000D03*
%TD*%
D14*
%TO.P,H3,1*%
%TO.N,N/C*%
X153600000Y-96000000D03*
X154302944Y-94302944D03*
X154302944Y-97697056D03*
X156000000Y-93600000D03*
D15*
X156000000Y-96000000D03*
D14*
X156000000Y-98400000D03*
X157697056Y-94302944D03*
X157697056Y-97697056D03*
X158400000Y-96000000D03*
%TD*%
D21*
%TO.P,SW1,1,1*%
%TO.N,/SWCLK{slash}BOOT0*%
X156656500Y-87325000D03*
%TO.P,SW1,2,2*%
%TO.N,+3V3*%
X156656500Y-90675000D03*
D22*
%TO.P,SW1,3*%
%TO.N,N/C*%
X158206500Y-86700000D03*
%TO.P,SW1,4*%
X158206500Y-91300000D03*
%TD*%
D16*
%TO.P,C7,1*%
%TO.N,+3V3*%
X143037500Y-76500000D03*
%TO.P,C7,2*%
%TO.N,GND*%
X140962500Y-76500000D03*
%TD*%
D23*
%TO.P,Q3,1,G*%
%TO.N,/G3*%
X133300000Y-62687500D03*
%TO.P,Q3,2,S*%
%TO.N,GND*%
X135200000Y-62687500D03*
%TO.P,Q3,3,D*%
%TO.N,/LED_HEATER_DRAIN*%
X134250000Y-60812500D03*
%TD*%
D24*
%TO.P,D3,1,K*%
%TO.N,+5V*%
X109500000Y-63400000D03*
%TO.P,D3,2,A*%
%TO.N,/PW+*%
X109500000Y-60600000D03*
%TD*%
D25*
%TO.P,R11,1*%
%TO.N,+3V3*%
X124750000Y-96000000D03*
%TO.P,R11,2*%
%TO.N,/BUTTON2*%
X124750000Y-94000000D03*
%TD*%
%TO.P,R16,1*%
%TO.N,/PW+*%
X109500000Y-58750000D03*
%TO.P,R16,2*%
%TO.N,Net-(D4-A)*%
X109500000Y-56750000D03*
%TD*%
D26*
%TO.P,U3,1,GND*%
%TO.N,GND*%
X107887500Y-73450000D03*
%TO.P,U3,2,VO*%
%TO.N,+3V3*%
X107887500Y-71550000D03*
%TO.P,U3,3,VI*%
%TO.N,+5V*%
X105612500Y-72500000D03*
%TD*%
D17*
%TO.P,R2,1*%
%TO.N,/CC2*%
X157500000Y-82750000D03*
%TO.P,R2,2*%
%TO.N,GND*%
X157500000Y-84750000D03*
%TD*%
D19*
%TO.P,J10,1,Pin_1*%
%TO.N,/AUX_SPI_SCK*%
X102725000Y-77650000D03*
D20*
%TO.P,J10,2,Pin_2*%
%TO.N,/AUX_SPI_MISO*%
X105265000Y-77650000D03*
%TO.P,J10,3,Pin_3*%
%TO.N,/AUX_SPI_MOSI*%
X102725000Y-80190000D03*
%TO.P,J10,4,Pin_4*%
%TO.N,/AUX_0*%
X105265000Y-80190000D03*
%TO.P,J10,5,Pin_5*%
%TO.N,/AUX_1*%
X102725000Y-82730000D03*
%TO.P,J10,6,Pin_6*%
%TO.N,/AUX_2*%
X105265000Y-82730000D03*
%TO.P,J10,7,Pin_7*%
%TO.N,/AUX_10*%
X102725000Y-85270000D03*
%TO.P,J10,8,Pin_8*%
%TO.N,/AUX_11*%
X105265000Y-85270000D03*
%TO.P,J10,9,Pin_9*%
%TO.N,+3V3*%
X102725000Y-87810000D03*
%TO.P,J10,10,Pin_10*%
%TO.N,/AUX_12*%
X105265000Y-87810000D03*
%TO.P,J10,11,Pin_11*%
%TO.N,GND*%
X102725000Y-90350000D03*
%TO.P,J10,12,Pin_12*%
X105265000Y-90350000D03*
%TD*%
D16*
%TO.P,C1,1*%
%TO.N,/NRST*%
X122537500Y-74500000D03*
%TO.P,C1,2*%
%TO.N,GND*%
X120462500Y-74500000D03*
%TD*%
D14*
%TO.P,H4,1*%
%TO.N,N/C*%
X101600000Y-96000000D03*
X102302944Y-94302944D03*
X102302944Y-97697056D03*
X104000000Y-93600000D03*
D15*
X104000000Y-96000000D03*
D14*
X104000000Y-98400000D03*
X105697056Y-94302944D03*
X105697056Y-97697056D03*
X106400000Y-96000000D03*
%TD*%
%TO.P,H1,1*%
%TO.N,N/C*%
X101600000Y-54000000D03*
X102302944Y-52302944D03*
X102302944Y-55697056D03*
X104000000Y-51600000D03*
D15*
X104000000Y-54000000D03*
D14*
X104000000Y-56400000D03*
X105697056Y-52302944D03*
X105697056Y-55697056D03*
X106400000Y-54000000D03*
%TD*%
D27*
%TO.P,J5,1,Pin_1*%
%TO.N,+5V*%
X124750000Y-54000000D03*
D28*
%TO.P,J5,2,Pin_2*%
%TO.N,/LED_LIGHT_DRAIN*%
X129830000Y-54000000D03*
%TD*%
D29*
%TO.P,D1,1,K*%
%TO.N,GND*%
X127025000Y-61000000D03*
%TO.P,D1,2,A*%
%TO.N,Net-(D1-A)*%
X124975000Y-61000000D03*
%TD*%
D19*
%TO.P,U5,1,SDA*%
%TO.N,/I2C_SDA*%
X113025000Y-68200000D03*
D20*
%TO.P,U5,2,SCL*%
%TO.N,/I2C_SCL*%
X113025000Y-70740000D03*
%TO.P,U5,3,VCC*%
%TO.N,+3V3*%
X113025000Y-73280000D03*
%TO.P,U5,4,GND*%
%TO.N,GND*%
X113025000Y-75820000D03*
%TD*%
D18*
%TO.P,TP3,1,1*%
%TO.N,+5V*%
X101500000Y-69500000D03*
%TD*%
D30*
%TO.P,BZ1,1,+*%
%TO.N,+5V*%
X157250000Y-63500000D03*
D31*
%TO.P,BZ1,2,-*%
%TO.N,/BUZZER_DRAIN*%
X149650000Y-63500000D03*
%TD*%
D32*
%TO.P,C5,1*%
%TO.N,+3V3*%
X120500000Y-70462500D03*
%TO.P,C5,2*%
%TO.N,GND*%
X120500000Y-72537500D03*
%TD*%
D23*
%TO.P,Q2,1,G*%
%TO.N,/G2*%
X129300000Y-62687500D03*
%TO.P,Q2,2,S*%
%TO.N,GND*%
X131200000Y-62687500D03*
%TO.P,Q2,3,D*%
%TO.N,/LED_LIGHT_DRAIN*%
X130250000Y-60812500D03*
%TD*%
D33*
%TO.P,R9,1*%
%TO.N,/LED_HEATER*%
X135250000Y-64750000D03*
%TO.P,R9,2*%
%TO.N,/G3*%
X133250000Y-64750000D03*
%TD*%
D17*
%TO.P,R3,1*%
%TO.N,/CC1*%
X155250000Y-82750000D03*
%TO.P,R3,2*%
%TO.N,GND*%
X155250000Y-84750000D03*
%TD*%
D32*
%TO.P,C2,1*%
%TO.N,+5V*%
X151750000Y-83462500D03*
%TO.P,C2,2*%
%TO.N,GND*%
X151750000Y-85537500D03*
%TD*%
D25*
%TO.P,R5,1*%
%TO.N,+3V3*%
X118000000Y-70250000D03*
%TO.P,R5,2*%
%TO.N,/I2C_SDA*%
X118000000Y-68250000D03*
%TD*%
D34*
%TO.P,SW2,1,1*%
%TO.N,/BUTTON1*%
X113150000Y-91100000D03*
X113150000Y-84900000D03*
%TO.P,SW2,2,2*%
%TO.N,GND*%
X116850000Y-91100000D03*
X116850000Y-84900000D03*
%TD*%
D35*
%TO.P,C15,1*%
%TO.N,+3V3*%
X120712500Y-60750000D03*
%TO.P,C15,2*%
%TO.N,GND*%
X122787500Y-60750000D03*
%TD*%
D36*
%TO.P,J8,1,Pin_1*%
%TO.N,GND*%
X131250000Y-97025000D03*
D37*
%TO.P,J8,2,Pin_2*%
%TO.N,/BUTTON2*%
X128750000Y-97025000D03*
%TD*%
D36*
%TO.P,J7,1,Pin_1*%
%TO.N,GND*%
X116250000Y-97025000D03*
D37*
%TO.P,J7,2,Pin_2*%
%TO.N,/BUTTON1*%
X113750000Y-97025000D03*
%TD*%
D38*
%TO.P,D4,1,K*%
%TO.N,GND*%
X109500000Y-52975000D03*
%TO.P,D4,2,A*%
%TO.N,Net-(D4-A)*%
X109500000Y-55025000D03*
%TD*%
D34*
%TO.P,SW4,1,1*%
%TO.N,/BUTTON3*%
X143150000Y-91100000D03*
X143150000Y-84900000D03*
%TO.P,SW4,2,2*%
%TO.N,GND*%
X146850000Y-91100000D03*
X146850000Y-84900000D03*
%TD*%
D32*
%TO.P,C3,1*%
%TO.N,+3V3*%
X122500000Y-70462500D03*
%TO.P,C3,2*%
%TO.N,GND*%
X122500000Y-72537500D03*
%TD*%
D39*
%TO.P,J11,1,Pin_1*%
%TO.N,Net-(J11-Pin_1)*%
X147000000Y-52975000D03*
D37*
%TO.P,J11,2,Pin_2*%
%TO.N,GND*%
X149500000Y-52975000D03*
%TD*%
D40*
%TO.P,R15,1*%
%TO.N,/WP*%
X120750000Y-62750000D03*
%TO.P,R15,2*%
%TO.N,GND*%
X122750000Y-62750000D03*
%TD*%
D25*
%TO.P,R6,1*%
%TO.N,+3V3*%
X116000000Y-72750000D03*
%TO.P,R6,2*%
%TO.N,/I2C_SCL*%
X116000000Y-70750000D03*
%TD*%
D27*
%TO.P,J4,1,Pin_1*%
%TO.N,GND*%
X104000000Y-65540000D03*
D28*
%TO.P,J4,2,Pin_2*%
%TO.N,/PW+*%
X104000000Y-60460000D03*
%TD*%
D18*
%TO.P,TP4,1,1*%
%TO.N,+3V3*%
X101500000Y-74250000D03*
%TD*%
D32*
%TO.P,C11,1*%
%TO.N,+5V*%
X109250000Y-67212500D03*
%TO.P,C11,2*%
%TO.N,GND*%
X109250000Y-69287500D03*
%TD*%
D41*
%TO.P,C14,1*%
%TO.N,/BUTTON3*%
X141000000Y-92287500D03*
%TO.P,C14,2*%
%TO.N,GND*%
X141000000Y-90212500D03*
%TD*%
D25*
%TO.P,R12,1*%
%TO.N,+3V3*%
X139750000Y-96000000D03*
%TO.P,R12,2*%
%TO.N,/BUTTON3*%
X139750000Y-94000000D03*
%TD*%
D16*
%TO.P,C16,1*%
%TO.N,/NTC*%
X122537500Y-76500000D03*
%TO.P,C16,2*%
%TO.N,GND*%
X120462500Y-76500000D03*
%TD*%
D34*
%TO.P,SW3,1,1*%
%TO.N,/BUTTON2*%
X128150000Y-91100000D03*
X128150000Y-84900000D03*
%TO.P,SW3,2,2*%
%TO.N,GND*%
X131850000Y-91100000D03*
X131850000Y-84900000D03*
%TD*%
D32*
%TO.P,C10,1*%
%TO.N,+3V3*%
X110000000Y-71462500D03*
%TO.P,C10,2*%
%TO.N,GND*%
X110000000Y-73537500D03*
%TD*%
D27*
%TO.P,J6,1,Pin_1*%
%TO.N,+5V*%
X135500000Y-54000000D03*
D28*
%TO.P,J6,2,Pin_2*%
%TO.N,/LED_HEATER_DRAIN*%
X140580000Y-54000000D03*
%TD*%
D24*
%TO.P,D2,1,K*%
%TO.N,+5V*%
X151750000Y-81650000D03*
%TO.P,D2,2,A*%
%TO.N,/VBUS*%
X151750000Y-78850000D03*
%TD*%
D33*
%TO.P,R4,1*%
%TO.N,/HEATER*%
X116000000Y-59000000D03*
%TO.P,R4,2*%
%TO.N,/HEATER_CONN*%
X114000000Y-59000000D03*
%TD*%
D42*
%TO.P,U2,1,UD+*%
%TO.N,/D+*%
X150375000Y-76405000D03*
%TO.P,U2,2,UD-*%
%TO.N,/D-*%
X150375000Y-75135000D03*
%TO.P,U2,3,GND*%
%TO.N,GND*%
X150375000Y-73865000D03*
%TO.P,U2,4,RTS#*%
%TO.N,/RST#*%
X150375000Y-72595000D03*
%TO.P,U2,5,VCC*%
%TO.N,+3V3*%
X145125000Y-72595000D03*
%TO.P,U2,6,TXD*%
%TO.N,/UART_RX*%
X145125000Y-73865000D03*
%TO.P,U2,7,RXD*%
%TO.N,/UART_TX*%
X145125000Y-75135000D03*
%TO.P,U2,8,V3*%
%TO.N,+3V3*%
X145125000Y-76405000D03*
%TD*%
D35*
%TO.P,C9,1*%
%TO.N,+5V*%
X108962500Y-65250000D03*
%TO.P,C9,2*%
%TO.N,GND*%
X111037500Y-65250000D03*
%TD*%
D43*
%TO.P,U4,1,A0*%
%TO.N,GND*%
X113425000Y-61345000D03*
%TO.P,U4,2,A1*%
X113425000Y-62615000D03*
%TO.P,U4,3,A2*%
X113425000Y-63885000D03*
%TO.P,U4,4,GND*%
X113425000Y-65155000D03*
%TO.P,U4,5,SDA*%
%TO.N,/I2C_SDA*%
X118575000Y-65155000D03*
%TO.P,U4,6,SCL*%
%TO.N,/I2C_SCL*%
X118575000Y-63885000D03*
%TO.P,U4,7,WP*%
%TO.N,/WP*%
X118575000Y-62615000D03*
%TO.P,U4,8,VCC*%
%TO.N,+3V3*%
X118575000Y-61345000D03*
%TD*%
D18*
%TO.P,TP2,1,1*%
%TO.N,GND*%
X101500000Y-71900000D03*
%TD*%
D41*
%TO.P,C12,1*%
%TO.N,/BUTTON1*%
X111000000Y-92287500D03*
%TO.P,C12,2*%
%TO.N,GND*%
X111000000Y-90212500D03*
%TD*%
D44*
%TO.P,U1,1,PC13*%
%TO.N,/BUTTON3*%
X125337500Y-69750000D03*
%TO.P,U1,2,PC14*%
%TO.N,/BUTTON2*%
X125337500Y-70250000D03*
%TO.P,U1,3,PC15*%
%TO.N,/BUTTON1*%
X125337500Y-70750000D03*
%TO.P,U1,4,VBAT*%
%TO.N,+3V3*%
X125337500Y-71250000D03*
%TO.P,U1,5,VREF+*%
X125337500Y-71750000D03*
%TO.P,U1,6,VDD*%
X125337500Y-72250000D03*
%TO.P,U1,7,VSS*%
%TO.N,GND*%
X125337500Y-72750000D03*
%TO.P,U1,8,PF0*%
%TO.N,unconnected-(U1-PF0-Pad8)*%
X125337500Y-73250000D03*
%TO.P,U1,9,PF1*%
%TO.N,unconnected-(U1-PF1-Pad9)*%
X125337500Y-73750000D03*
%TO.P,U1,10,NRST*%
%TO.N,/NRST*%
X125337500Y-74250000D03*
%TO.P,U1,11,PA0*%
%TO.N,unconnected-(U1-PA0-Pad11)*%
X125337500Y-74750000D03*
%TO.P,U1,12,ADC1_IN1*%
%TO.N,/NTC*%
X125337500Y-75250000D03*
D45*
%TO.P,U1,13,USART2_TX*%
%TO.N,/UART_TX*%
X126750000Y-76662500D03*
%TO.P,U1,14,USART2_RX*%
%TO.N,/UART_RX*%
X127250000Y-76662500D03*
%TO.P,U1,15,TIM14_CH1*%
%TO.N,unconnected-(U1-PA4-Pad15)*%
X127750000Y-76662500D03*
%TO.P,U1,16,SPI1_SCK*%
%TO.N,/AUX_SPI_SCK*%
X128250000Y-76662500D03*
%TO.P,U1,17,SPI1_MISO*%
%TO.N,/AUX_SPI_MISO*%
X128750000Y-76662500D03*
%TO.P,U1,18,SPI1_MOSI*%
%TO.N,/AUX_SPI_MOSI*%
X129250000Y-76662500D03*
%TO.P,U1,19,PB0*%
%TO.N,/AUX_0*%
X129750000Y-76662500D03*
%TO.P,U1,20,PB1*%
%TO.N,/AUX_1*%
X130250000Y-76662500D03*
%TO.P,U1,21,PB2*%
%TO.N,/AUX_2*%
X130750000Y-76662500D03*
%TO.P,U1,22,PB10*%
%TO.N,/AUX_10*%
X131250000Y-76662500D03*
%TO.P,U1,23,PB11*%
%TO.N,/AUX_11*%
X131750000Y-76662500D03*
%TO.P,U1,24,PB12*%
%TO.N,/AUX_12*%
X132250000Y-76662500D03*
D44*
%TO.P,U1,25,PB13*%
%TO.N,unconnected-(U1-PB13-Pad25)*%
X133662500Y-75250000D03*
%TO.P,U1,26,PB14*%
%TO.N,unconnected-(U1-PB14-Pad26)*%
X133662500Y-74750000D03*
%TO.P,U1,27,PB15*%
%TO.N,unconnected-(U1-PB15-Pad27)*%
X133662500Y-74250000D03*
%TO.P,U1,28,PA8*%
%TO.N,unconnected-(U1-PA8-Pad28)*%
X133662500Y-73750000D03*
%TO.P,U1,29,PA9*%
%TO.N,unconnected-(U1-PA9-Pad29)*%
X133662500Y-73250000D03*
%TO.P,U1,30,PC6*%
%TO.N,unconnected-(U1-PC6-Pad30)*%
X133662500Y-72750000D03*
%TO.P,U1,31,PC7*%
%TO.N,unconnected-(U1-PC7-Pad31)*%
X133662500Y-72250000D03*
%TO.P,U1,32,PA10*%
%TO.N,unconnected-(U1-PA10-Pad32)*%
X133662500Y-71750000D03*
%TO.P,U1,33,PA9/PA11*%
%TO.N,unconnected-(U1-PA9{slash}PA11-Pad33)*%
X133662500Y-71250000D03*
%TO.P,U1,34,PA10/PA12*%
%TO.N,unconnected-(U1-PA10{slash}PA12-Pad34)*%
X133662500Y-70750000D03*
%TO.P,U1,35,SYS_SWDIO*%
%TO.N,/SWDIO*%
X133662500Y-70250000D03*
%TO.P,U1,36,SYS_SWCLK*%
%TO.N,/SWCLK{slash}BOOT0*%
X133662500Y-69750000D03*
D45*
%TO.P,U1,37,PA15*%
%TO.N,unconnected-(U1-PA15-Pad37)*%
X132250000Y-68337500D03*
%TO.P,U1,38,TIM16_CH1*%
%TO.N,/BUZZER*%
X131750000Y-68337500D03*
%TO.P,U1,39,PD1*%
%TO.N,/LED_HEATER*%
X131250000Y-68337500D03*
%TO.P,U1,40,PD2*%
%TO.N,unconnected-(U1-PD2-Pad40)*%
X130750000Y-68337500D03*
%TO.P,U1,41,PD3*%
%TO.N,/LED_LIGHT*%
X130250000Y-68337500D03*
%TO.P,U1,42,PB3*%
%TO.N,unconnected-(U1-PB3-Pad42)*%
X129750000Y-68337500D03*
%TO.P,U1,43,PB4*%
%TO.N,/LED_ALIVE*%
X129250000Y-68337500D03*
%TO.P,U1,44,PB5*%
%TO.N,unconnected-(U1-PB5-Pad44)*%
X128750000Y-68337500D03*
%TO.P,U1,45,PB6*%
%TO.N,unconnected-(U1-PB6-Pad45)*%
X128250000Y-68337500D03*
%TO.P,U1,46,I2C1_SDA*%
%TO.N,/I2C_SDA*%
X127750000Y-68337500D03*
%TO.P,U1,47,I2C1_SCL*%
%TO.N,/I2C_SCL*%
X127250000Y-68337500D03*
%TO.P,U1,48,TIM17_CH1*%
%TO.N,/HEATER*%
X126750000Y-68337500D03*
%TD*%
D16*
%TO.P,C6,1*%
%TO.N,+3V3*%
X143037500Y-72500000D03*
%TO.P,C6,2*%
%TO.N,GND*%
X140962500Y-72500000D03*
%TD*%
D27*
%TO.P,J3,1,Pin_1*%
%TO.N,/HEATER_CONN*%
X114000000Y-54000000D03*
D28*
%TO.P,J3,2,Pin_2*%
%TO.N,GND*%
X119080000Y-54000000D03*
%TD*%
D46*
%TO.P,JP1,1,A*%
%TO.N,/NRST*%
X147850000Y-78750000D03*
D47*
%TO.P,JP1,2,B*%
%TO.N,/RST#*%
X149150000Y-78750000D03*
%TD*%
D33*
%TO.P,R7,1*%
%TO.N,/BUZZER*%
X139250000Y-64750000D03*
%TO.P,R7,2*%
%TO.N,/G1*%
X137250000Y-64750000D03*
%TD*%
%TO.P,R8,1*%
%TO.N,/LED_LIGHT*%
X131250000Y-64750000D03*
%TO.P,R8,2*%
%TO.N,/G2*%
X129250000Y-64750000D03*
%TD*%
D41*
%TO.P,C13,1*%
%TO.N,/BUTTON2*%
X126000000Y-92287500D03*
%TO.P,C13,2*%
%TO.N,GND*%
X126000000Y-90212500D03*
%TD*%
D23*
%TO.P,Q1,1,G*%
%TO.N,/G1*%
X137300000Y-62687500D03*
%TO.P,Q1,2,S*%
%TO.N,GND*%
X139200000Y-62687500D03*
%TO.P,Q1,3,D*%
%TO.N,/BUZZER_DRAIN*%
X138250000Y-60812500D03*
%TD*%
D36*
%TO.P,J9,1,Pin_1*%
%TO.N,GND*%
X146250000Y-97025000D03*
D37*
%TO.P,J9,2,Pin_2*%
%TO.N,/BUTTON3*%
X143750000Y-97025000D03*
%TD*%
D25*
%TO.P,R1,1*%
%TO.N,/LED_ALIVE*%
X127250000Y-65000000D03*
%TO.P,R1,2*%
%TO.N,Net-(D1-A)*%
X127250000Y-63000000D03*
%TD*%
%TO.P,R10,1*%
%TO.N,+3V3*%
X109750000Y-96000000D03*
%TO.P,R10,2*%
%TO.N,/BUTTON1*%
X109750000Y-94000000D03*
%TD*%
D32*
%TO.P,C4,1*%
%TO.N,+5V*%
X149750000Y-83462500D03*
%TO.P,C4,2*%
%TO.N,GND*%
X149750000Y-85537500D03*
%TD*%
D48*
%TO.N,+5V*%
X149000000Y-80250000D03*
X150250000Y-67250000D03*
%TO.N,GND*%
X141000000Y-77750000D03*
X132900000Y-84900000D03*
X117850000Y-91100000D03*
X140962500Y-71287500D03*
X136000000Y-62750000D03*
X146850000Y-86150000D03*
X110500000Y-69287500D03*
X124750000Y-90212500D03*
X147900000Y-91100000D03*
X140000000Y-62750000D03*
X111037500Y-66462500D03*
X153000000Y-85500000D03*
X127000000Y-59750000D03*
X158750000Y-84750000D03*
X132900000Y-91100000D03*
X117900000Y-84900000D03*
X120462500Y-77712500D03*
X149135000Y-73865000D03*
X132000000Y-62750000D03*
X124000000Y-62750000D03*
X139500000Y-90212500D03*
X109750000Y-90212500D03*
X109500000Y-52000000D03*
%TO.N,+3V3*%
X120500000Y-68750000D03*
X106250000Y-73500000D03*
X117100000Y-61345000D03*
X133250000Y-68750000D03*
D49*
%TO.N,/BUTTON1*%
X128000000Y-72000000D03*
X123750000Y-83750000D03*
%TO.N,/BUTTON2*%
X126750000Y-84750000D03*
X129000000Y-72000000D03*
%TO.N,/BUTTON3*%
X130000000Y-82750000D03*
X130000000Y-72000000D03*
D48*
%TO.N,/VBUS*%
X151750000Y-77500000D03*
X152400000Y-73600000D03*
D49*
%TO.N,/D+*%
X152500000Y-76500000D03*
X152500000Y-75000000D03*
%TO.N,/SWCLK{slash}BOOT0*%
X142500000Y-83000000D03*
X138800003Y-73250000D03*
X138800003Y-75750000D03*
%TO.N,/SWDIO*%
X138000000Y-73250000D03*
X138000000Y-75750000D03*
%TO.N,Net-(J11-Pin_1)*%
X147000000Y-61562500D03*
X126750000Y-72750000D03*
X131875000Y-71375000D03*
X147000000Y-60000000D03*
X126250000Y-77750000D03*
X137018329Y-67786657D03*
%TO.N,/HEATER*%
X118750000Y-66500000D03*
X116000000Y-63750000D03*
%TO.N,/I2C_SDA*%
X126050000Y-65157338D03*
X123750000Y-65155000D03*
%TO.N,/I2C_SCL*%
X116000000Y-68800000D03*
X116000000Y-67600000D03*
%TO.N,/UART_RX*%
X135750000Y-74000000D03*
X130600000Y-74500000D03*
%TO.N,/UART_TX*%
X131500000Y-75100000D03*
X135250000Y-75100000D03*
%TD*%
D50*
%TO.N,/BUZZER_DRAIN*%
X148812500Y-60812500D02*
X138250000Y-60812500D01*
X149650000Y-61650000D02*
X148812500Y-60812500D01*
X149650000Y-63500000D02*
X149650000Y-61650000D01*
D51*
%TO.N,+5V*%
X135500000Y-54000000D02*
X135500000Y-51250000D01*
X154000000Y-63500000D02*
X157250000Y-63500000D01*
X124750000Y-51250000D02*
X124750000Y-54000000D01*
X109500000Y-63400000D02*
X110350000Y-63400000D01*
X150375000Y-51250000D02*
X151750000Y-52625000D01*
D50*
X151750000Y-83462500D02*
X149750000Y-83462500D01*
X101500000Y-69750000D02*
X103000000Y-71250000D01*
D51*
X135500000Y-51250000D02*
X134750000Y-51250000D01*
X149750000Y-83462500D02*
X149750000Y-81000000D01*
X149750000Y-81000000D02*
X149000000Y-80250000D01*
D50*
X103000000Y-71250000D02*
X105250000Y-71250000D01*
D51*
X125500000Y-51250000D02*
X124750000Y-51250000D01*
X150250000Y-67250000D02*
X154000000Y-63500000D01*
X151750000Y-56000000D02*
X157250000Y-61500000D01*
X135500000Y-51250000D02*
X150375000Y-51250000D01*
D50*
X101500000Y-69500000D02*
X101500000Y-69750000D01*
X105250000Y-71250000D02*
X105612500Y-71612500D01*
D51*
X110350000Y-63400000D02*
X111250000Y-62500000D01*
X111250000Y-52500000D02*
X112500000Y-51250000D01*
X151750000Y-52625000D02*
X151750000Y-56000000D01*
X112500000Y-51250000D02*
X125500000Y-51250000D01*
X134750000Y-51250000D02*
X125500000Y-51250000D01*
D50*
X151750000Y-81650000D02*
X151750000Y-83462500D01*
D51*
X111250000Y-62500000D02*
X111250000Y-52500000D01*
D50*
X105612500Y-71612500D02*
X105612500Y-72500000D01*
D51*
X157250000Y-61500000D02*
X157250000Y-63500000D01*
D52*
%TO.N,/NRST*%
X122787500Y-74250000D02*
X122537500Y-74500000D01*
X127176000Y-73324000D02*
X131324000Y-73324000D01*
X132250000Y-75250000D02*
X134840000Y-77840000D01*
D53*
X135250000Y-82250000D02*
X146500000Y-82250000D01*
X134840000Y-81840000D02*
X135250000Y-82250000D01*
X147850000Y-80900000D02*
X147850000Y-78750000D01*
X134840000Y-80500000D02*
X134840000Y-81840000D01*
D52*
X132250000Y-74250000D02*
X132250000Y-75250000D01*
X126250000Y-74250000D02*
X127176000Y-73324000D01*
X125337500Y-74250000D02*
X126250000Y-74250000D01*
X134840000Y-77840000D02*
X134840000Y-80500000D01*
X131324000Y-73324000D02*
X132250000Y-74250000D01*
D53*
X146500000Y-82250000D02*
X147850000Y-80900000D01*
D52*
X125337500Y-74250000D02*
X122787500Y-74250000D01*
D50*
%TO.N,GND*%
X153632500Y-79200000D02*
X153632500Y-79745000D01*
X139500000Y-90212500D02*
X141000000Y-90212500D01*
X147900000Y-91100000D02*
X146850000Y-91100000D01*
X139937500Y-62687500D02*
X140000000Y-62750000D01*
X107887500Y-73450000D02*
X109912500Y-73450000D01*
X113330000Y-65250000D02*
X113425000Y-65155000D01*
X109500000Y-52975000D02*
X109500000Y-52000000D01*
X132900000Y-91100000D02*
X131850000Y-91100000D01*
X157500000Y-84750000D02*
X155250000Y-84750000D01*
X122750000Y-60787500D02*
X122787500Y-60750000D01*
X110000000Y-74500000D02*
X111320000Y-75820000D01*
X132900000Y-84900000D02*
X131850000Y-84900000D01*
X120462500Y-77712500D02*
X120462500Y-76500000D01*
X103462500Y-69500000D02*
X103462500Y-66077500D01*
X109750000Y-90212500D02*
X111000000Y-90212500D01*
X153632500Y-72255000D02*
X154207500Y-71680000D01*
X135937500Y-62687500D02*
X136000000Y-62750000D01*
X140962500Y-76500000D02*
X140962500Y-77712500D01*
X139200000Y-62687500D02*
X139937500Y-62687500D01*
X122750000Y-62750000D02*
X124000000Y-62750000D01*
X113425000Y-61345000D02*
X113425000Y-62615000D01*
X153632500Y-79745000D02*
X154207500Y-80320000D01*
X151750000Y-85537500D02*
X152962500Y-85537500D01*
X109912500Y-73450000D02*
X110000000Y-73537500D01*
X111037500Y-65250000D02*
X113330000Y-65250000D01*
X153632500Y-72800000D02*
X153632500Y-72255000D01*
X146850000Y-86150000D02*
X146850000Y-84900000D01*
X110500000Y-69287500D02*
X109250000Y-69287500D01*
X131937500Y-62687500D02*
X132000000Y-62750000D01*
X157500000Y-84750000D02*
X158750000Y-84750000D01*
X117900000Y-84900000D02*
X116850000Y-84900000D01*
X127025000Y-61000000D02*
X127025000Y-59775000D01*
X117850000Y-91100000D02*
X116850000Y-91100000D01*
X111320000Y-75820000D02*
X113025000Y-75820000D01*
X152962500Y-85537500D02*
X153000000Y-85500000D01*
X103462500Y-69500000D02*
X103462500Y-69787500D01*
X140962500Y-77712500D02*
X141000000Y-77750000D01*
X124750000Y-90212500D02*
X126000000Y-90212500D01*
X140962500Y-71287500D02*
X140962500Y-72500000D01*
X111037500Y-66462500D02*
X111037500Y-65250000D01*
X103462500Y-66077500D02*
X104000000Y-65540000D01*
X135200000Y-62687500D02*
X135937500Y-62687500D01*
X113425000Y-62615000D02*
X113425000Y-63885000D01*
X110000000Y-73537500D02*
X110000000Y-74500000D01*
X149750000Y-85537500D02*
X151750000Y-85537500D01*
X127025000Y-59775000D02*
X127000000Y-59750000D01*
X131200000Y-62687500D02*
X131937500Y-62687500D01*
X122750000Y-62750000D02*
X122750000Y-60787500D01*
X149135000Y-73865000D02*
X150375000Y-73865000D01*
X113425000Y-63885000D02*
X113425000Y-65155000D01*
%TO.N,+3V3*%
X100750000Y-87250000D02*
X100750000Y-77023000D01*
X145000000Y-80170000D02*
X145000000Y-80500000D01*
X145125000Y-72595000D02*
X145949999Y-72595000D01*
X120500000Y-70462500D02*
X120500000Y-68750000D01*
X101310000Y-87810000D02*
X100750000Y-87250000D01*
X145125000Y-80045000D02*
X145000000Y-80170000D01*
X120117500Y-61345000D02*
X120712500Y-60750000D01*
X145949999Y-72595000D02*
X146500000Y-73145001D01*
X102725000Y-87810000D02*
X101310000Y-87810000D01*
X100750000Y-77023000D02*
X104273000Y-73500000D01*
X143037500Y-71037500D02*
X143037500Y-72500000D01*
X145125000Y-76405000D02*
X145125000Y-80045000D01*
X146500000Y-75854999D02*
X145949999Y-76405000D01*
X133250000Y-68750000D02*
X140750000Y-68750000D01*
X146500000Y-73145001D02*
X146500000Y-75854999D01*
X145125000Y-76405000D02*
X143132500Y-76405000D01*
X145949999Y-76405000D02*
X145125000Y-76405000D01*
X143132500Y-76405000D02*
X143037500Y-76500000D01*
X104273000Y-73500000D02*
X106250000Y-73500000D01*
X118575000Y-61345000D02*
X120117500Y-61345000D01*
X145125000Y-72595000D02*
X143132500Y-72595000D01*
X117100000Y-61345000D02*
X118575000Y-61345000D01*
X140750000Y-68750000D02*
X143037500Y-71037500D01*
X143132500Y-72595000D02*
X143037500Y-72500000D01*
D53*
%TO.N,/BUTTON1*%
X119500000Y-88000000D02*
X113150000Y-88000000D01*
X123750000Y-83750000D02*
X119500000Y-88000000D01*
X113150000Y-84900000D02*
X113150000Y-88000000D01*
X113150000Y-88000000D02*
X113150000Y-91100000D01*
X126750000Y-70750000D02*
X125337500Y-70750000D01*
X128000000Y-72000000D02*
X126750000Y-70750000D01*
%TO.N,/BUTTON2*%
X127275000Y-70250000D02*
X125337500Y-70250000D01*
X129000000Y-72000000D02*
X129000000Y-71975000D01*
X126750000Y-84750000D02*
X128000000Y-84750000D01*
X128150000Y-91100000D02*
X128150000Y-84900000D01*
X128000000Y-84750000D02*
X128150000Y-84900000D01*
X129000000Y-71975000D02*
X127275000Y-70250000D01*
%TO.N,/BUTTON3*%
X143150000Y-84900000D02*
X143150000Y-91100000D01*
X130000000Y-72000000D02*
X127750000Y-69750000D01*
X130000000Y-82750000D02*
X133250000Y-82750000D01*
X135400000Y-84900000D02*
X143150000Y-84900000D01*
X133250000Y-82750000D02*
X135400000Y-84900000D01*
X127750000Y-69750000D02*
X125337500Y-69750000D01*
%TO.N,Net-(D1-A)*%
X125750000Y-63000000D02*
X124975000Y-62225000D01*
X124975000Y-62225000D02*
X124975000Y-61000000D01*
X127250000Y-63000000D02*
X125750000Y-63000000D01*
D50*
%TO.N,/VBUS*%
X152400000Y-73600000D02*
X153632500Y-73600000D01*
X151750000Y-77500000D02*
X151750000Y-78850000D01*
X152200000Y-78400000D02*
X153632500Y-78400000D01*
X151750000Y-78850000D02*
X152200000Y-78400000D01*
D53*
%TO.N,/D+*%
X150375000Y-76405000D02*
X152405000Y-76405000D01*
X152500000Y-75000000D02*
X152750000Y-75250000D01*
X152405000Y-76405000D02*
X152500000Y-76500000D01*
X152750000Y-75250000D02*
X153632500Y-75250000D01*
X152750000Y-76250000D02*
X152500000Y-76500000D01*
X153632500Y-76250000D02*
X152750000Y-76250000D01*
%TO.N,/CC2*%
X154459500Y-74250000D02*
X156750000Y-76540500D01*
X157500000Y-82250000D02*
X157500000Y-82750000D01*
X156750000Y-76540500D02*
X156750000Y-81500000D01*
X153632500Y-74250000D02*
X154459500Y-74250000D01*
X156750000Y-81500000D02*
X157500000Y-82250000D01*
%TO.N,/D-*%
X154750000Y-76040500D02*
X154459500Y-75750000D01*
X154459500Y-76750000D02*
X154750000Y-76459500D01*
X154459500Y-75750000D02*
X153632500Y-75750000D01*
X152000000Y-75750000D02*
X151385000Y-75135000D01*
X151385000Y-75135000D02*
X150375000Y-75135000D01*
X153632500Y-75750000D02*
X152000000Y-75750000D01*
X153632500Y-76750000D02*
X154459500Y-76750000D01*
X154750000Y-76459500D02*
X154750000Y-76040500D01*
%TO.N,/CC1*%
X156000000Y-78000000D02*
X156000000Y-81500000D01*
X153632500Y-77250000D02*
X155250000Y-77250000D01*
X156000000Y-81500000D02*
X155250000Y-82250000D01*
X155250000Y-82250000D02*
X155250000Y-82750000D01*
X155250000Y-77250000D02*
X156000000Y-78000000D01*
%TO.N,/SWCLK{slash}BOOT0*%
X138800003Y-72550003D02*
X138800003Y-73250000D01*
X149325000Y-87325000D02*
X156656500Y-87325000D01*
X133662500Y-69750000D02*
X136000000Y-69750000D01*
X138800003Y-76840003D02*
X142460000Y-80500000D01*
X136000000Y-69750000D02*
X138800003Y-72550003D01*
X138800003Y-75750000D02*
X138800003Y-76840003D01*
X147251000Y-83000000D02*
X148250000Y-83999000D01*
X148250000Y-86250000D02*
X149325000Y-87325000D01*
X148250000Y-83999000D02*
X148250000Y-86250000D01*
X142500000Y-83000000D02*
X147251000Y-83000000D01*
%TO.N,/SWDIO*%
X138000000Y-73250000D02*
X138000000Y-72500000D01*
X137380000Y-76370000D02*
X138000000Y-75750000D01*
X135750000Y-70250000D02*
X133662500Y-70250000D01*
X137380000Y-80500000D02*
X137380000Y-76370000D01*
X138000000Y-72500000D02*
X135750000Y-70250000D01*
%TO.N,/HEATER_CONN*%
X114000000Y-54000000D02*
X114000000Y-59000000D01*
X116000000Y-54000000D02*
X114000000Y-54000000D01*
X118000000Y-59000000D02*
X118000000Y-56000000D01*
X118000000Y-56000000D02*
X116000000Y-54000000D01*
D50*
%TO.N,/LED_LIGHT_DRAIN*%
X130250000Y-56200000D02*
X129830000Y-55780000D01*
X130250000Y-60812500D02*
X130250000Y-56200000D01*
X129830000Y-55780000D02*
X129830000Y-54000000D01*
%TO.N,/LED_HEATER_DRAIN*%
X134250000Y-60812500D02*
X134250000Y-60330000D01*
X134250000Y-60330000D02*
X140580000Y-54000000D01*
D53*
%TO.N,/AUX_2*%
X130750000Y-78751300D02*
X127701300Y-81800000D01*
X127701300Y-81800000D02*
X110000000Y-81800000D01*
X110000000Y-81800000D02*
X109070000Y-82730000D01*
X109070000Y-82730000D02*
X105265000Y-82730000D01*
X130750000Y-76662500D02*
X130750000Y-78751300D01*
%TO.N,/AUX_SPI_SCK*%
X102725000Y-77650000D02*
X102725000Y-76475000D01*
X112800000Y-79800000D02*
X126800000Y-79800000D01*
X126800000Y-79800000D02*
X128250000Y-78350000D01*
X102725000Y-76475000D02*
X103400000Y-75800000D01*
X108800000Y-75800000D02*
X112800000Y-79800000D01*
X128250000Y-78350000D02*
X128250000Y-76662500D01*
X103400000Y-75800000D02*
X108800000Y-75800000D01*
%TO.N,/AUX_SPI_MOSI*%
X109003019Y-78928019D02*
X110675000Y-80600000D01*
X102725000Y-80190000D02*
X103986981Y-78928019D01*
X127200000Y-80600000D02*
X129250000Y-78550000D01*
X110675000Y-80600000D02*
X127200000Y-80600000D01*
X103986981Y-78928019D02*
X109003019Y-78928019D01*
X129250000Y-78550000D02*
X129250000Y-76662500D01*
%TO.N,/AUX_11*%
X128035500Y-82600000D02*
X111600000Y-82600000D01*
X111600000Y-82600000D02*
X108930000Y-85270000D01*
X108930000Y-85270000D02*
X105265000Y-85270000D01*
X131750000Y-76662500D02*
X131750000Y-78885500D01*
X131750000Y-78885500D02*
X128035500Y-82600000D01*
%TO.N,/AUX_SPI_MISO*%
X127000000Y-80200000D02*
X128750000Y-78450000D01*
X111989285Y-80200000D02*
X127000000Y-80200000D01*
X105265000Y-77650000D02*
X109439285Y-77650000D01*
X109439285Y-77650000D02*
X111989285Y-80200000D01*
X128750000Y-78450000D02*
X128750000Y-76662500D01*
%TO.N,/AUX_0*%
X127367100Y-81000000D02*
X110000000Y-81000000D01*
X109190000Y-80190000D02*
X105265000Y-80190000D01*
X110000000Y-81000000D02*
X109190000Y-80190000D01*
X129750000Y-76662500D02*
X129750000Y-78617100D01*
X129750000Y-78617100D02*
X127367100Y-81000000D01*
%TO.N,/AUX_12*%
X107590000Y-87810000D02*
X105265000Y-87810000D01*
X132250000Y-78952600D02*
X128202600Y-83000000D01*
X128202600Y-83000000D02*
X112400000Y-83000000D01*
X132250000Y-76662500D02*
X132250000Y-78952600D01*
X112400000Y-83000000D02*
X107590000Y-87810000D01*
%TO.N,/AUX_10*%
X131250000Y-78818400D02*
X127868400Y-82200000D01*
X131250000Y-76662500D02*
X131250000Y-78818400D01*
X110600000Y-82200000D02*
X108800000Y-84000000D01*
X108800000Y-84000000D02*
X103995000Y-84000000D01*
X103995000Y-84000000D02*
X102725000Y-85270000D01*
X127868400Y-82200000D02*
X110600000Y-82200000D01*
%TO.N,/AUX_1*%
X127534200Y-81400000D02*
X104055000Y-81400000D01*
X130250000Y-78684200D02*
X127534200Y-81400000D01*
X104055000Y-81400000D02*
X102725000Y-82730000D01*
X130250000Y-76662500D02*
X130250000Y-78684200D01*
%TO.N,Net-(J11-Pin_1)*%
X124500000Y-78750000D02*
X125750000Y-78750000D01*
X118750000Y-78500000D02*
X119000000Y-78750000D01*
X147000000Y-60000000D02*
X147000000Y-52975000D01*
X147000000Y-61562500D02*
X140775843Y-67786657D01*
X126750000Y-72750000D02*
X130500000Y-72750000D01*
X126250000Y-78250000D02*
X126250000Y-77750000D01*
X119000000Y-78750000D02*
X124500000Y-78750000D01*
X118500000Y-78500000D02*
X118750000Y-78500000D01*
X140775843Y-67786657D02*
X137018329Y-67786657D01*
X125750000Y-78750000D02*
X126250000Y-78250000D01*
X130500000Y-72750000D02*
X131875000Y-71375000D01*
%TO.N,/RST#*%
X150375000Y-72595000D02*
X149155000Y-72595000D01*
X148250000Y-76250000D02*
X149150000Y-77150000D01*
X149150000Y-77150000D02*
X149150000Y-78750000D01*
X149155000Y-72595000D02*
X148250000Y-73500000D01*
X148250000Y-73500000D02*
X148250000Y-76250000D01*
%TO.N,/G1*%
X137250000Y-64750000D02*
X137250000Y-62737500D01*
X137250000Y-62737500D02*
X137300000Y-62687500D01*
%TO.N,/G2*%
X129300000Y-64450000D02*
X129300000Y-62687500D01*
X129250000Y-64750000D02*
X129250000Y-64500000D01*
X129250000Y-64500000D02*
X129300000Y-64450000D01*
%TO.N,/G3*%
X133250000Y-64000000D02*
X133300000Y-63950000D01*
X133300000Y-63950000D02*
X133300000Y-62687500D01*
X133250000Y-64750000D02*
X133250000Y-64000000D01*
%TO.N,/LED_ALIVE*%
X129250000Y-67250000D02*
X129250000Y-68337500D01*
X127250000Y-65250000D02*
X129250000Y-67250000D01*
X127250000Y-65000000D02*
X127250000Y-65250000D01*
%TO.N,/HEATER*%
X124337500Y-68337500D02*
X126750000Y-68337500D01*
X122500000Y-66500000D02*
X124337500Y-68337500D01*
X116000000Y-63750000D02*
X116000000Y-59000000D01*
X118750000Y-66500000D02*
X122500000Y-66500000D01*
%TO.N,/I2C_SDA*%
X127750000Y-67250000D02*
X127750000Y-68337500D01*
X118575000Y-65712500D02*
X118575000Y-65155000D01*
X113025000Y-68200000D02*
X117950000Y-68200000D01*
X118000000Y-66287500D02*
X118575000Y-65712500D01*
X118000000Y-68250000D02*
X118000000Y-66287500D01*
X123750000Y-65155000D02*
X118575000Y-65155000D01*
X126050000Y-65550000D02*
X127750000Y-67250000D01*
X126050000Y-65157338D02*
X126050000Y-65550000D01*
X117950000Y-68200000D02*
X118000000Y-68250000D01*
%TO.N,/I2C_SCL*%
X116000000Y-70750000D02*
X116000000Y-68800000D01*
X113025000Y-70740000D02*
X115990000Y-70740000D01*
X127250000Y-67500000D02*
X123635000Y-63885000D01*
X127250000Y-68337500D02*
X127250000Y-67500000D01*
X117365000Y-63885000D02*
X118575000Y-63885000D01*
X123635000Y-63885000D02*
X118575000Y-63885000D01*
X115990000Y-70740000D02*
X116000000Y-70750000D01*
X116000000Y-65250000D02*
X117365000Y-63885000D01*
X116000000Y-67600000D02*
X116000000Y-65250000D01*
%TO.N,/BUZZER*%
X136750000Y-67250000D02*
X139250000Y-64750000D01*
X132000000Y-67250000D02*
X136750000Y-67250000D01*
X131750000Y-67500000D02*
X132000000Y-67250000D01*
X131750000Y-68337500D02*
X131750000Y-67500000D01*
%TO.N,/LED_LIGHT*%
X130250000Y-66750000D02*
X130250000Y-68337500D01*
X131250000Y-65750000D02*
X130250000Y-66750000D01*
X131250000Y-64750000D02*
X131250000Y-65750000D01*
%TO.N,/LED_HEATER*%
X134351000Y-66849000D02*
X131833900Y-66849000D01*
X131833900Y-66849000D02*
X131250000Y-67432900D01*
X135250000Y-64750000D02*
X135250000Y-65950000D01*
X135250000Y-65950000D02*
X134351000Y-66849000D01*
X131250000Y-67432900D02*
X131250000Y-68337500D01*
%TO.N,/WP*%
X118575000Y-62615000D02*
X120615000Y-62615000D01*
X120615000Y-62615000D02*
X120750000Y-62750000D01*
%TO.N,/UART_RX*%
X130600000Y-74500000D02*
X128000000Y-74500000D01*
X127250000Y-75250000D02*
X127250000Y-76662500D01*
X135885000Y-73865000D02*
X145125000Y-73865000D01*
X135750000Y-74000000D02*
X135885000Y-73865000D01*
X128000000Y-74500000D02*
X127250000Y-75250000D01*
%TO.N,/UART_TX*%
X131500000Y-74250000D02*
X131000000Y-73750000D01*
X131500000Y-75100000D02*
X131500000Y-74250000D01*
X145090000Y-75100000D02*
X135250000Y-75100000D01*
X131000000Y-73750000D02*
X128000000Y-73750000D01*
X145125000Y-75135000D02*
X145090000Y-75100000D01*
X126750000Y-75000000D02*
X126750000Y-76662500D01*
X128000000Y-73750000D02*
X126750000Y-75000000D01*
D51*
%TO.N,/PW+*%
X109220000Y-60600000D02*
X109360000Y-60460000D01*
X104140000Y-60600000D02*
X109220000Y-60600000D01*
D50*
X109360000Y-60460000D02*
X109500000Y-60600000D01*
X109500000Y-58750000D02*
X109500000Y-60600000D01*
D51*
X104000000Y-60460000D02*
X104140000Y-60600000D01*
D53*
%TO.N,Net-(D4-A)*%
X109500000Y-56750000D02*
X109500000Y-55025000D01*
%TD*%
%TA.AperFunction,Conductor*%
%TO.N,GND*%
G36*
X123074268Y-71625375D02*
G01*
X123332469Y-71627208D01*
X123355843Y-71629601D01*
X123413413Y-71641085D01*
X123456740Y-71658726D01*
X123505963Y-71690728D01*
X123524357Y-71705342D01*
X124350000Y-72500000D01*
X124349999Y-72500000D01*
X124350635Y-72500005D01*
X124405245Y-72500493D01*
X124472105Y-72520775D01*
X124473028Y-72521386D01*
X124476374Y-72523622D01*
X124476376Y-72523624D01*
X124567505Y-72584515D01*
X124567509Y-72584516D01*
X124596025Y-72590188D01*
X124647867Y-72600500D01*
X126027132Y-72600499D01*
X126088022Y-72588388D01*
X126108140Y-72590188D01*
X126128089Y-72587026D01*
X126142227Y-72593238D01*
X126157613Y-72594615D01*
X126173565Y-72607007D01*
X126192056Y-72615132D01*
X126210189Y-72635458D01*
X126212790Y-72637479D01*
X126215534Y-72641444D01*
X126218111Y-72645329D01*
X126236416Y-72689808D01*
X126245229Y-72734371D01*
X126245202Y-72782621D01*
X126238729Y-72815161D01*
X126206343Y-72877071D01*
X126145627Y-72911645D01*
X126092921Y-72912585D01*
X126027136Y-72899500D01*
X124647870Y-72899500D01*
X124567504Y-72915485D01*
X124472296Y-72979102D01*
X124405618Y-72999980D01*
X124403405Y-73000000D01*
X124250000Y-73000000D01*
X124181946Y-73045367D01*
X124181918Y-73045387D01*
X123875000Y-73250000D01*
X123775936Y-73316041D01*
X123570577Y-73452947D01*
X123554725Y-73461908D01*
X123513356Y-73481435D01*
X123478590Y-73491961D01*
X123433337Y-73498662D01*
X123415173Y-73500000D01*
X121500000Y-73500000D01*
X121500000Y-77237789D01*
X121497617Y-77261980D01*
X121497617Y-77261982D01*
X121485781Y-77321482D01*
X121467267Y-77366179D01*
X121440481Y-77406268D01*
X121406269Y-77440479D01*
X121371975Y-77463394D01*
X121366179Y-77467267D01*
X121321482Y-77485781D01*
X121287857Y-77492469D01*
X121261978Y-77497617D01*
X121237789Y-77500000D01*
X119762211Y-77500000D01*
X119738020Y-77497617D01*
X119723189Y-77494667D01*
X119678518Y-77485781D01*
X119633822Y-77467267D01*
X119593727Y-77440477D01*
X119559522Y-77406272D01*
X119532730Y-77366175D01*
X119514218Y-77321480D01*
X119502383Y-77261980D01*
X119500000Y-77237789D01*
X119500000Y-71864049D01*
X119502404Y-71839751D01*
X119514344Y-71779999D01*
X119533017Y-71735140D01*
X119560034Y-71694938D01*
X119594513Y-71660704D01*
X119634899Y-71633977D01*
X119679892Y-71615621D01*
X119739724Y-71604105D01*
X119764037Y-71601874D01*
X123074268Y-71625375D01*
G37*
%TD.AperFunction*%
%TD*%
%TA.AperFunction,Conductor*%
%TO.N,/BUTTON3*%
G36*
X143643039Y-90019685D02*
G01*
X143688794Y-90072489D01*
X143700000Y-90124000D01*
X143700000Y-92000000D01*
X143876000Y-92000000D01*
X143943039Y-92019685D01*
X143988794Y-92072489D01*
X144000000Y-92124000D01*
X144000000Y-92500000D01*
X144005983Y-92527929D01*
X144005991Y-92527962D01*
X144107142Y-92999999D01*
X144107142Y-93000000D01*
X144531636Y-94980970D01*
X144743764Y-95970900D01*
X144744966Y-95977330D01*
X144747576Y-95993676D01*
X144748954Y-96006685D01*
X144749827Y-96023206D01*
X144750000Y-96029749D01*
X144750000Y-97987789D01*
X144747617Y-98011982D01*
X144735781Y-98071482D01*
X144732590Y-98079183D01*
X144732499Y-98084341D01*
X144717267Y-98116179D01*
X144690481Y-98156268D01*
X144656269Y-98190479D01*
X144621975Y-98213394D01*
X144616179Y-98217267D01*
X144571482Y-98235781D01*
X144537857Y-98242469D01*
X144511978Y-98247617D01*
X144487789Y-98250000D01*
X143012211Y-98250000D01*
X142988020Y-98247617D01*
X142973189Y-98244667D01*
X142928518Y-98235781D01*
X142883822Y-98217267D01*
X142843727Y-98190477D01*
X142809522Y-98156272D01*
X142782730Y-98116175D01*
X142764218Y-98071480D01*
X142752383Y-98011980D01*
X142750000Y-97987789D01*
X142750000Y-96250001D01*
X142750000Y-96250000D01*
X142632501Y-96176563D01*
X142632500Y-96176562D01*
X140810801Y-95038000D01*
X140810797Y-95037998D01*
X140750000Y-95000000D01*
X139012211Y-95000000D01*
X138988020Y-94997617D01*
X138973189Y-94994667D01*
X138928518Y-94985781D01*
X138883822Y-94967267D01*
X138843727Y-94940477D01*
X138809522Y-94906272D01*
X138782730Y-94866175D01*
X138764218Y-94821480D01*
X138752383Y-94761980D01*
X138750000Y-94737789D01*
X138750000Y-93101305D01*
X138751864Y-93079887D01*
X138761173Y-93026828D01*
X138775760Y-92986539D01*
X138802574Y-92939823D01*
X138814852Y-92922176D01*
X139166789Y-92499853D01*
X139916316Y-91600418D01*
X139935826Y-91581630D01*
X139989205Y-91540457D01*
X140037993Y-91517606D01*
X140071369Y-91510177D01*
X140103789Y-91502962D01*
X140130729Y-91500000D01*
X141750000Y-91500000D01*
X142250000Y-91000000D01*
X142250000Y-90262210D01*
X142252383Y-90238019D01*
X142264218Y-90178519D01*
X142282729Y-90133826D01*
X142309524Y-90093724D01*
X142343724Y-90059524D01*
X142383826Y-90032729D01*
X142428514Y-90014219D01*
X142488028Y-90002381D01*
X142512211Y-90000000D01*
X143576000Y-90000000D01*
X143643039Y-90019685D01*
G37*
%TD.AperFunction*%
%TD*%
%TA.AperFunction,Conductor*%
%TO.N,+3V3*%
G36*
X104261980Y-73252383D02*
G01*
X104321480Y-73264218D01*
X104366175Y-73282730D01*
X104406272Y-73309522D01*
X104412164Y-73315414D01*
X104416896Y-73317474D01*
X104440476Y-73343726D01*
X104467267Y-73383822D01*
X104485781Y-73428517D01*
X104489542Y-73447427D01*
X104497617Y-73488019D01*
X104500000Y-73512210D01*
X104500000Y-73608673D01*
X104495774Y-73640770D01*
X104492112Y-73654435D01*
X104485865Y-73664681D01*
X104483877Y-73676513D01*
X104468019Y-73693958D01*
X104455745Y-73714095D01*
X104443775Y-73720630D01*
X104436881Y-73728216D01*
X104404438Y-73742111D01*
X104390774Y-73745773D01*
X104358674Y-73750000D01*
X104249999Y-73750000D01*
X104176777Y-73823223D01*
X101185412Y-76814587D01*
X101166621Y-76830008D01*
X101116179Y-76863712D01*
X101071482Y-76882227D01*
X101024193Y-76891634D01*
X100975808Y-76891634D01*
X100928518Y-76882227D01*
X100883822Y-76863713D01*
X100843727Y-76836923D01*
X100809522Y-76802718D01*
X100782730Y-76762621D01*
X100764218Y-76717926D01*
X100752383Y-76658427D01*
X100750000Y-76634236D01*
X100750000Y-73512210D01*
X100752383Y-73488019D01*
X100764219Y-73428517D01*
X100782729Y-73383826D01*
X100809524Y-73343724D01*
X100843724Y-73309524D01*
X100883826Y-73282729D01*
X100928514Y-73264219D01*
X100988028Y-73252381D01*
X101012211Y-73250000D01*
X104237789Y-73250000D01*
X104261980Y-73252383D01*
G37*
%TD.AperFunction*%
%TD*%
%TA.AperFunction,Conductor*%
%TO.N,/NTC*%
G36*
X124517410Y-75051042D02*
G01*
X124567505Y-75084515D01*
X124567509Y-75084516D01*
X124587755Y-75088543D01*
X124647867Y-75100500D01*
X126027132Y-75100499D01*
X126091299Y-75087736D01*
X126100312Y-75088543D01*
X126108848Y-75085532D01*
X126134564Y-75091608D01*
X126160887Y-75093965D01*
X126168035Y-75099518D01*
X126176845Y-75101600D01*
X126195193Y-75120615D01*
X126216064Y-75136828D01*
X126220359Y-75146695D01*
X126225361Y-75151879D01*
X126237103Y-75185162D01*
X126247617Y-75238018D01*
X126250000Y-75262210D01*
X126250000Y-75449106D01*
X126249501Y-75460215D01*
X126246987Y-75488164D01*
X126243024Y-75510019D01*
X126235561Y-75537082D01*
X126232128Y-75547657D01*
X125565244Y-77326013D01*
X125554148Y-77348422D01*
X125520986Y-77401226D01*
X125486607Y-77437197D01*
X125445900Y-77465407D01*
X125400151Y-77484966D01*
X125339062Y-77497478D01*
X125314181Y-77500000D01*
X122012211Y-77500000D01*
X121988020Y-77497617D01*
X121973189Y-77494667D01*
X121928518Y-77485781D01*
X121883822Y-77467267D01*
X121843727Y-77440477D01*
X121809522Y-77406272D01*
X121782730Y-77366175D01*
X121764218Y-77321480D01*
X121752383Y-77261980D01*
X121750000Y-77237789D01*
X121750000Y-75762210D01*
X121752383Y-75738019D01*
X121764218Y-75678519D01*
X121782729Y-75633826D01*
X121809524Y-75593724D01*
X121843724Y-75559524D01*
X121883826Y-75532729D01*
X121928514Y-75514219D01*
X121988028Y-75502381D01*
X122012211Y-75500000D01*
X123250000Y-75500000D01*
X124114178Y-75154329D01*
X124402468Y-75039012D01*
X124472022Y-75032392D01*
X124517410Y-75051042D01*
G37*
%TD.AperFunction*%
%TD*%
%TA.AperFunction,Conductor*%
%TO.N,+3V3*%
G36*
X123750000Y-99999500D02*
G01*
X112250000Y-99999500D01*
X112250000Y-98500000D01*
X118000000Y-98500000D01*
X120503003Y-96175783D01*
X121419538Y-95324714D01*
X121437903Y-95310613D01*
X121486921Y-95279792D01*
X121529856Y-95262932D01*
X121558948Y-95257425D01*
X121586744Y-95252164D01*
X121609807Y-95250000D01*
X123750000Y-95250000D01*
X123750000Y-99999500D01*
G37*
%TD.AperFunction*%
%TD*%
%TA.AperFunction,Conductor*%
%TO.N,+3V3*%
G36*
X125683334Y-95251337D02*
G01*
X125698236Y-95253543D01*
X125728591Y-95258037D01*
X125729261Y-95258240D01*
X125729620Y-95258194D01*
X125763356Y-95268564D01*
X125804724Y-95288090D01*
X125820578Y-95297052D01*
X127125937Y-96167291D01*
X127148963Y-96187116D01*
X127199518Y-96242807D01*
X127227982Y-96295991D01*
X127246276Y-96368945D01*
X127250000Y-96399106D01*
X127250000Y-99999500D01*
X123750000Y-99999500D01*
X123750000Y-95250000D01*
X125665173Y-95250000D01*
X125683334Y-95251337D01*
G37*
%TD.AperFunction*%
%TD*%
%TA.AperFunction,Conductor*%
%TO.N,/BUTTON1*%
G36*
X113643039Y-90019685D02*
G01*
X113688794Y-90072489D01*
X113700000Y-90124000D01*
X113700000Y-92000000D01*
X113876000Y-92000000D01*
X113943039Y-92019685D01*
X113988794Y-92072489D01*
X114000000Y-92124000D01*
X114000000Y-92500000D01*
X114005983Y-92527929D01*
X114005991Y-92527962D01*
X114107142Y-92999999D01*
X114107142Y-93000000D01*
X114531636Y-94980970D01*
X114743764Y-95970900D01*
X114744966Y-95977330D01*
X114747576Y-95993676D01*
X114748954Y-96006685D01*
X114749827Y-96023206D01*
X114750000Y-96029749D01*
X114750000Y-97987789D01*
X114747617Y-98011982D01*
X114735781Y-98071482D01*
X114732590Y-98079183D01*
X114732499Y-98084341D01*
X114717267Y-98116179D01*
X114690481Y-98156268D01*
X114656269Y-98190479D01*
X114621975Y-98213394D01*
X114616179Y-98217267D01*
X114571482Y-98235781D01*
X114537857Y-98242469D01*
X114511978Y-98247617D01*
X114487789Y-98250000D01*
X113012211Y-98250000D01*
X112988020Y-98247617D01*
X112973189Y-98244667D01*
X112928518Y-98235781D01*
X112883822Y-98217267D01*
X112843727Y-98190477D01*
X112809522Y-98156272D01*
X112782730Y-98116175D01*
X112764218Y-98071480D01*
X112752383Y-98011980D01*
X112750000Y-97987789D01*
X112750000Y-96250001D01*
X112750000Y-96250000D01*
X112632501Y-96176563D01*
X112632500Y-96176562D01*
X110810801Y-95038000D01*
X110810797Y-95037998D01*
X110750000Y-95000000D01*
X109012211Y-95000000D01*
X108988020Y-94997617D01*
X108973189Y-94994667D01*
X108928518Y-94985781D01*
X108883822Y-94967267D01*
X108843727Y-94940477D01*
X108809522Y-94906272D01*
X108782730Y-94866175D01*
X108764218Y-94821480D01*
X108752383Y-94761980D01*
X108750000Y-94737789D01*
X108750000Y-93101305D01*
X108751864Y-93079887D01*
X108761173Y-93026828D01*
X108775760Y-92986539D01*
X108802574Y-92939823D01*
X108814852Y-92922176D01*
X109166789Y-92499853D01*
X109916316Y-91600418D01*
X109935826Y-91581630D01*
X109989205Y-91540457D01*
X110037993Y-91517606D01*
X110071369Y-91510177D01*
X110103789Y-91502962D01*
X110130729Y-91500000D01*
X111750000Y-91500000D01*
X112250000Y-91000000D01*
X112250000Y-90262210D01*
X112252383Y-90238019D01*
X112264218Y-90178519D01*
X112282729Y-90133826D01*
X112309524Y-90093724D01*
X112343724Y-90059524D01*
X112383826Y-90032729D01*
X112428514Y-90014219D01*
X112488028Y-90002381D01*
X112512211Y-90000000D01*
X113576000Y-90000000D01*
X113643039Y-90019685D01*
G37*
%TD.AperFunction*%
%TD*%
%TA.AperFunction,Conductor*%
%TO.N,+5V*%
G36*
X110011980Y-62502383D02*
G01*
X110071480Y-62514218D01*
X110116175Y-62532730D01*
X110156272Y-62559522D01*
X110162164Y-62565414D01*
X110166896Y-62567474D01*
X110190476Y-62593726D01*
X110217267Y-62633822D01*
X110235781Y-62678517D01*
X110239542Y-62697427D01*
X110247617Y-62738019D01*
X110250000Y-62762210D01*
X110250000Y-63726755D01*
X110249894Y-63731881D01*
X110249359Y-63744811D01*
X110248515Y-63755005D01*
X110246913Y-63767872D01*
X110246176Y-63772937D01*
X110000000Y-65249999D01*
X110000000Y-65250001D01*
X110010033Y-65310209D01*
X110010036Y-65310220D01*
X110158337Y-66200027D01*
X110159074Y-66205092D01*
X110160676Y-66217959D01*
X110161520Y-66228153D01*
X110162055Y-66241083D01*
X110162161Y-66246209D01*
X110162161Y-67737789D01*
X110159778Y-67761982D01*
X110147942Y-67821482D01*
X110144751Y-67829183D01*
X110144660Y-67834341D01*
X110129427Y-67866179D01*
X110103938Y-67904329D01*
X110102642Y-67906268D01*
X110068430Y-67940479D01*
X110034136Y-67963394D01*
X110028340Y-67967267D01*
X109983643Y-67985781D01*
X109950018Y-67992469D01*
X109924139Y-67997617D01*
X109899950Y-68000000D01*
X108499999Y-68000000D01*
X106500000Y-69999999D01*
X106500000Y-72737789D01*
X106497617Y-72761980D01*
X106488946Y-72805572D01*
X106456561Y-72867483D01*
X106395846Y-72902057D01*
X106335241Y-72901157D01*
X106329057Y-72899500D01*
X106170943Y-72899500D01*
X106018216Y-72940423D01*
X106018213Y-72940424D01*
X105971720Y-72967267D01*
X105943799Y-72983387D01*
X105881800Y-73000000D01*
X105012211Y-73000000D01*
X104988020Y-72997617D01*
X104973189Y-72994667D01*
X104928518Y-72985781D01*
X104883822Y-72967267D01*
X104843727Y-72940477D01*
X104809522Y-72906272D01*
X104782730Y-72866175D01*
X104764218Y-72821480D01*
X104752383Y-72761980D01*
X104750000Y-72737789D01*
X104750000Y-68012210D01*
X104752383Y-67988019D01*
X104764218Y-67928519D01*
X104782729Y-67883826D01*
X104809524Y-67843724D01*
X104843724Y-67809524D01*
X104883826Y-67782729D01*
X104928514Y-67764219D01*
X104988028Y-67752381D01*
X105012211Y-67750000D01*
X106500000Y-67750000D01*
X106500000Y-62762210D01*
X106502383Y-62738019D01*
X106514219Y-62678517D01*
X106532729Y-62633826D01*
X106559524Y-62593724D01*
X106593724Y-62559524D01*
X106633826Y-62532729D01*
X106678514Y-62514219D01*
X106738028Y-62502381D01*
X106762211Y-62500000D01*
X109987789Y-62500000D01*
X110011980Y-62502383D01*
G37*
%TD.AperFunction*%
%TD*%
%TA.AperFunction,Conductor*%
%TO.N,+3V3*%
G36*
X157011980Y-90002383D02*
G01*
X157071480Y-90014218D01*
X157116175Y-90032730D01*
X157156272Y-90059522D01*
X157162164Y-90065414D01*
X157166896Y-90067474D01*
X157190476Y-90093726D01*
X157217267Y-90133822D01*
X157235781Y-90178517D01*
X157239542Y-90197427D01*
X157247617Y-90238019D01*
X157250000Y-90262210D01*
X157250000Y-92658475D01*
X157230315Y-92725514D01*
X157177511Y-92771269D01*
X157108353Y-92781213D01*
X157090005Y-92777136D01*
X156827241Y-92697428D01*
X156827230Y-92697425D01*
X156499565Y-92632250D01*
X156499548Y-92632247D01*
X156248108Y-92607483D01*
X156167056Y-92599500D01*
X155832944Y-92599500D01*
X155757982Y-92606883D01*
X155500451Y-92632247D01*
X155500434Y-92632250D01*
X155172769Y-92697425D01*
X155172758Y-92697428D01*
X154853022Y-92794418D01*
X154544343Y-92922278D01*
X154544338Y-92922280D01*
X154249696Y-93079769D01*
X154249678Y-93079780D01*
X153971890Y-93265393D01*
X153971876Y-93265403D01*
X153713604Y-93477361D01*
X153477361Y-93713604D01*
X153265403Y-93971876D01*
X153265393Y-93971890D01*
X153079780Y-94249678D01*
X153079769Y-94249696D01*
X152922280Y-94544338D01*
X152922278Y-94544343D01*
X152794418Y-94853022D01*
X152697428Y-95172758D01*
X152697425Y-95172769D01*
X152632250Y-95500434D01*
X152632247Y-95500451D01*
X152606883Y-95757982D01*
X152599500Y-95832944D01*
X152599500Y-96167056D01*
X152603271Y-96205345D01*
X152632247Y-96499548D01*
X152632250Y-96499565D01*
X152697425Y-96827230D01*
X152697428Y-96827241D01*
X152794418Y-97146977D01*
X152922278Y-97455656D01*
X152922280Y-97455661D01*
X153079769Y-97750303D01*
X153079780Y-97750321D01*
X153265393Y-98028109D01*
X153265403Y-98028123D01*
X153477361Y-98286395D01*
X153713604Y-98522638D01*
X153713609Y-98522642D01*
X153713610Y-98522643D01*
X153971882Y-98734601D01*
X154249685Y-98920224D01*
X154249694Y-98920229D01*
X154249696Y-98920230D01*
X154544338Y-99077719D01*
X154544340Y-99077719D01*
X154544346Y-99077723D01*
X154853024Y-99205582D01*
X155172749Y-99302569D01*
X155172755Y-99302570D01*
X155172758Y-99302571D01*
X155172769Y-99302574D01*
X155368589Y-99341524D01*
X155500441Y-99367751D01*
X155832944Y-99400500D01*
X155832947Y-99400500D01*
X156167053Y-99400500D01*
X156167056Y-99400500D01*
X156499559Y-99367751D01*
X156661757Y-99335487D01*
X156827230Y-99302574D01*
X156827241Y-99302571D01*
X156827241Y-99302570D01*
X156827251Y-99302569D01*
X157090007Y-99222862D01*
X157159872Y-99222240D01*
X157218985Y-99259488D01*
X157248575Y-99322782D01*
X157250000Y-99341524D01*
X157250000Y-99640059D01*
X157247205Y-99666239D01*
X157238227Y-99707804D01*
X157216621Y-99755490D01*
X157199358Y-99778767D01*
X157159995Y-99813288D01*
X157122829Y-99833943D01*
X157098584Y-99844218D01*
X157078189Y-99850404D01*
X157070588Y-99852448D01*
X156783160Y-99920051D01*
X156778960Y-99920963D01*
X156710233Y-99934633D01*
X156703174Y-99935826D01*
X156416674Y-99975791D01*
X156411697Y-99976383D01*
X156336799Y-99983760D01*
X156330372Y-99984225D01*
X156002855Y-99999368D01*
X155997128Y-99999500D01*
X142250000Y-99999500D01*
X142250000Y-98500000D01*
X148500000Y-98500000D01*
X148500000Y-91180923D01*
X148500500Y-91179057D01*
X148500500Y-91020943D01*
X148500000Y-91019076D01*
X148500000Y-90262210D01*
X148502383Y-90238019D01*
X148514218Y-90178517D01*
X148532729Y-90133826D01*
X148559524Y-90093724D01*
X148593724Y-90059524D01*
X148633826Y-90032729D01*
X148678514Y-90014219D01*
X148738028Y-90002381D01*
X148762211Y-90000000D01*
X156987789Y-90000000D01*
X157011980Y-90002383D01*
G37*
%TD.AperFunction*%
%TD*%
%TA.AperFunction,Conductor*%
%TO.N,+3V3*%
G36*
X140683334Y-95251337D02*
G01*
X140698236Y-95253543D01*
X140728591Y-95258037D01*
X140729261Y-95258240D01*
X140729620Y-95258194D01*
X140763356Y-95268564D01*
X140804724Y-95288090D01*
X140820578Y-95297052D01*
X142125937Y-96167291D01*
X142148963Y-96187116D01*
X142199518Y-96242807D01*
X142227982Y-96295991D01*
X142246276Y-96368945D01*
X142250000Y-96399106D01*
X142250000Y-99999500D01*
X138750000Y-99999500D01*
X138750000Y-95250000D01*
X140665173Y-95250000D01*
X140683334Y-95251337D01*
G37*
%TD.AperFunction*%
%TD*%
%TA.AperFunction,Conductor*%
%TO.N,+3V3*%
G36*
X123362897Y-69251963D02*
G01*
X123417233Y-69261748D01*
X123422545Y-69263725D01*
X123425803Y-69263606D01*
X123458424Y-69277081D01*
X123496249Y-69299473D01*
X123529507Y-69328215D01*
X123564220Y-69371149D01*
X123576510Y-69389472D01*
X124402048Y-70894360D01*
X124414948Y-70929800D01*
X124415483Y-70932491D01*
X124415484Y-70932492D01*
X124415485Y-70932495D01*
X124454279Y-70990554D01*
X124454278Y-70990554D01*
X124457294Y-70995068D01*
X124460000Y-71000000D01*
X124460590Y-71000000D01*
X124476374Y-71023621D01*
X124476378Y-71023626D01*
X124501632Y-71040500D01*
X124567505Y-71084515D01*
X124567508Y-71084515D01*
X124567509Y-71084516D01*
X124587755Y-71088543D01*
X124647867Y-71100500D01*
X126027132Y-71100499D01*
X126091299Y-71087736D01*
X126100312Y-71088543D01*
X126108848Y-71085532D01*
X126134564Y-71091608D01*
X126160887Y-71093965D01*
X126168035Y-71099518D01*
X126176845Y-71101600D01*
X126195193Y-71120615D01*
X126216064Y-71136828D01*
X126220359Y-71146695D01*
X126225361Y-71151879D01*
X126237103Y-71185162D01*
X126247617Y-71238018D01*
X126250000Y-71262210D01*
X126250000Y-72252491D01*
X126247589Y-72276820D01*
X126246034Y-72284591D01*
X126245922Y-72285155D01*
X126213463Y-72347028D01*
X126152707Y-72381530D01*
X126113293Y-72384328D01*
X126106332Y-72383705D01*
X126105055Y-72383774D01*
X126105054Y-72383773D01*
X126097600Y-72384172D01*
X126095918Y-72384060D01*
X126093978Y-72384366D01*
X126087574Y-72384710D01*
X126087570Y-72384711D01*
X126047941Y-72386835D01*
X126047934Y-72386835D01*
X126047933Y-72386836D01*
X126047930Y-72386836D01*
X126047927Y-72386837D01*
X126018866Y-72392617D01*
X125994679Y-72394999D01*
X124691381Y-72394999D01*
X124673237Y-72389671D01*
X124654329Y-72389334D01*
X124626108Y-72375832D01*
X124624342Y-72375314D01*
X124622491Y-72374102D01*
X124590547Y-72352758D01*
X124590546Y-72352757D01*
X124589380Y-72351977D01*
X124587277Y-72350571D01*
X124586852Y-72350289D01*
X124586461Y-72350029D01*
X124586421Y-72350002D01*
X124585539Y-72349418D01*
X124585537Y-72349417D01*
X124531763Y-72324125D01*
X124531758Y-72324123D01*
X124460761Y-72302586D01*
X124410769Y-72273268D01*
X123939326Y-71819518D01*
X123666863Y-71557280D01*
X123666856Y-71557274D01*
X123666851Y-71557269D01*
X123652210Y-71544459D01*
X123652200Y-71544450D01*
X123633792Y-71529825D01*
X123633777Y-71529814D01*
X123617985Y-71518445D01*
X123568754Y-71486438D01*
X123568751Y-71486436D01*
X123534240Y-71468400D01*
X123534219Y-71468391D01*
X123490920Y-71450761D01*
X123490897Y-71450753D01*
X123453621Y-71439557D01*
X123453598Y-71439552D01*
X123396065Y-71428075D01*
X123396039Y-71428071D01*
X123376792Y-71425173D01*
X123376791Y-71425172D01*
X123376772Y-71425170D01*
X123369590Y-71424434D01*
X123353395Y-71422776D01*
X123333945Y-71421713D01*
X123333953Y-71421713D01*
X123085657Y-71419950D01*
X123075727Y-71419880D01*
X123075726Y-71419879D01*
X119765509Y-71396378D01*
X119765468Y-71396379D01*
X119745268Y-71397233D01*
X119745248Y-71397234D01*
X119720972Y-71399461D01*
X119720971Y-71399461D01*
X119705837Y-71401606D01*
X119700884Y-71402309D01*
X119700881Y-71402309D01*
X119700878Y-71402310D01*
X119641053Y-71413824D01*
X119602264Y-71425347D01*
X119557274Y-71443701D01*
X119521486Y-71462606D01*
X119481098Y-71489335D01*
X119449732Y-71514867D01*
X119449728Y-71514870D01*
X119415242Y-71549110D01*
X119415239Y-71549114D01*
X119389474Y-71580309D01*
X119362448Y-71620525D01*
X119362446Y-71620528D01*
X119343300Y-71656160D01*
X119343292Y-71656175D01*
X119324626Y-71701018D01*
X119312826Y-71739737D01*
X119300890Y-71799471D01*
X119300886Y-71799496D01*
X119297903Y-71819507D01*
X119295497Y-71843830D01*
X119294500Y-71864016D01*
X119294500Y-71864049D01*
X119294500Y-77237789D01*
X119295490Y-77257935D01*
X119297873Y-77282126D01*
X119300831Y-77302070D01*
X119310725Y-77351810D01*
X119304496Y-77421402D01*
X119261632Y-77476579D01*
X119195742Y-77499822D01*
X119189107Y-77500000D01*
X117609334Y-77500000D01*
X117586359Y-77497853D01*
X117529684Y-77487167D01*
X117486891Y-77470435D01*
X117438002Y-77439848D01*
X117419663Y-77425843D01*
X117229166Y-77250000D01*
X114321824Y-74566299D01*
X114321823Y-74566298D01*
X114250000Y-74500000D01*
X111262211Y-74500000D01*
X111238020Y-74497617D01*
X111223189Y-74494667D01*
X111178518Y-74485781D01*
X111133822Y-74467267D01*
X111093727Y-74440477D01*
X111059522Y-74406272D01*
X111032730Y-74366175D01*
X111014218Y-74321480D01*
X111002383Y-74261980D01*
X111000000Y-74237789D01*
X111000000Y-72500000D01*
X110750000Y-72500000D01*
X107262211Y-72500000D01*
X107238020Y-72497617D01*
X107223189Y-72494667D01*
X107178518Y-72485781D01*
X107133822Y-72467267D01*
X107093727Y-72440477D01*
X107059522Y-72406272D01*
X107032730Y-72366175D01*
X107014218Y-72321480D01*
X107002383Y-72261980D01*
X107000000Y-72237789D01*
X107000000Y-70762210D01*
X107002383Y-70738019D01*
X107014218Y-70678519D01*
X107032729Y-70633826D01*
X107059524Y-70593724D01*
X107093724Y-70559524D01*
X107133826Y-70532729D01*
X107178514Y-70514219D01*
X107238028Y-70502381D01*
X107262211Y-70500000D01*
X111100894Y-70500000D01*
X111131053Y-70503724D01*
X111172899Y-70514217D01*
X111204007Y-70522017D01*
X111257190Y-70550479D01*
X111304836Y-70593731D01*
X111312881Y-70601034D01*
X111332708Y-70624062D01*
X112070646Y-71730970D01*
X112250000Y-72000000D01*
X114209431Y-72000000D01*
X114249998Y-72000000D01*
X114250000Y-72000000D01*
X114279002Y-71990331D01*
X114279009Y-71990330D01*
X114288486Y-71987171D01*
X114288488Y-71987171D01*
X114625000Y-71875000D01*
X114956816Y-71764394D01*
X114966348Y-71761638D01*
X114990821Y-71755615D01*
X115010484Y-71752425D01*
X115035594Y-71750400D01*
X115045557Y-71750000D01*
X117000000Y-71750000D01*
X117000000Y-69512210D01*
X117002383Y-69488019D01*
X117014218Y-69428519D01*
X117032729Y-69383826D01*
X117059524Y-69343724D01*
X117093724Y-69309524D01*
X117133826Y-69282729D01*
X117178514Y-69264219D01*
X117238028Y-69252381D01*
X117262211Y-69250000D01*
X123340920Y-69250000D01*
X123362897Y-69251963D01*
G37*
%TD.AperFunction*%
%TD*%
%TA.AperFunction,Conductor*%
%TO.N,+3V3*%
G36*
X110683334Y-95251337D02*
G01*
X110698236Y-95253543D01*
X110728591Y-95258037D01*
X110729261Y-95258240D01*
X110729620Y-95258194D01*
X110763356Y-95268564D01*
X110804724Y-95288090D01*
X110820578Y-95297052D01*
X112125937Y-96167291D01*
X112148963Y-96187116D01*
X112199518Y-96242807D01*
X112227982Y-96295991D01*
X112246276Y-96368945D01*
X112250000Y-96399106D01*
X112250000Y-99999500D01*
X108750000Y-99999500D01*
X108750000Y-95250000D01*
X110665173Y-95250000D01*
X110683334Y-95251337D01*
G37*
%TD.AperFunction*%
%TD*%
%TA.AperFunction,Conductor*%
%TO.N,+3V3*%
G36*
X138750000Y-99999500D02*
G01*
X127250000Y-99999500D01*
X127250000Y-98500000D01*
X133000000Y-98500000D01*
X135503003Y-96175783D01*
X136419538Y-95324714D01*
X136437903Y-95310613D01*
X136486921Y-95279792D01*
X136529856Y-95262932D01*
X136558948Y-95257425D01*
X136586744Y-95252164D01*
X136609807Y-95250000D01*
X138750000Y-95250000D01*
X138750000Y-99999500D01*
G37*
%TD.AperFunction*%
%TD*%
%TA.AperFunction,Conductor*%
%TO.N,+3V3*%
G36*
X103761980Y-86502383D02*
G01*
X103821480Y-86514218D01*
X103866175Y-86532730D01*
X103906272Y-86559522D01*
X103912164Y-86565414D01*
X103916896Y-86567474D01*
X103940476Y-86593726D01*
X103967267Y-86633822D01*
X103985781Y-86678517D01*
X103989542Y-86697427D01*
X103997617Y-86738022D01*
X104000000Y-86762210D01*
X104000000Y-89000000D01*
X108237789Y-89000000D01*
X108261980Y-89002383D01*
X108321480Y-89014218D01*
X108366175Y-89032730D01*
X108406272Y-89059522D01*
X108440477Y-89093727D01*
X108467267Y-89133822D01*
X108485781Y-89178517D01*
X108497617Y-89238022D01*
X108500000Y-89262210D01*
X108500000Y-95250000D01*
X108750000Y-95250000D01*
X108750000Y-99999500D01*
X104002872Y-99999500D01*
X103997145Y-99999368D01*
X103669621Y-99984225D01*
X103663193Y-99983760D01*
X103588307Y-99976384D01*
X103583331Y-99975792D01*
X103296822Y-99935826D01*
X103289762Y-99934632D01*
X103221037Y-99920962D01*
X103216838Y-99920051D01*
X102929406Y-99852448D01*
X102921801Y-99850403D01*
X102864183Y-99832925D01*
X102860790Y-99831841D01*
X102570831Y-99734657D01*
X102562783Y-99731646D01*
X102523164Y-99715234D01*
X102520534Y-99714109D01*
X102224482Y-99583390D01*
X102216112Y-99579312D01*
X102205980Y-99573896D01*
X102204097Y-99572868D01*
X101899547Y-99403234D01*
X101889809Y-99397205D01*
X101594487Y-99194906D01*
X101585347Y-99188003D01*
X101309964Y-98959328D01*
X101301500Y-98951612D01*
X101048387Y-98698499D01*
X101040671Y-98690035D01*
X100901671Y-98522643D01*
X100811994Y-98414649D01*
X100805093Y-98405512D01*
X100723496Y-98286395D01*
X100602794Y-98110190D01*
X100596765Y-98100452D01*
X100427130Y-97795901D01*
X100426102Y-97794018D01*
X100420686Y-97783886D01*
X100416608Y-97775516D01*
X100405483Y-97750321D01*
X100285889Y-97479464D01*
X100284763Y-97476831D01*
X100268352Y-97437212D01*
X100265341Y-97429165D01*
X100168138Y-97139150D01*
X100167073Y-97135812D01*
X100149592Y-97078187D01*
X100147563Y-97070644D01*
X100079932Y-96783094D01*
X100079036Y-96778961D01*
X100065366Y-96710236D01*
X100064177Y-96703210D01*
X100024194Y-96416577D01*
X100023620Y-96411750D01*
X100016237Y-96336789D01*
X100015775Y-96330414D01*
X100000632Y-96002854D01*
X100000500Y-95997128D01*
X100000500Y-95832947D01*
X100599500Y-95832947D01*
X100599500Y-96167052D01*
X100632247Y-96499548D01*
X100632250Y-96499565D01*
X100697425Y-96827230D01*
X100697428Y-96827241D01*
X100794418Y-97146977D01*
X100922278Y-97455656D01*
X100922280Y-97455661D01*
X101079769Y-97750303D01*
X101079780Y-97750321D01*
X101265393Y-98028109D01*
X101265403Y-98028123D01*
X101477361Y-98286395D01*
X101713604Y-98522638D01*
X101713609Y-98522642D01*
X101713610Y-98522643D01*
X101971882Y-98734601D01*
X102249685Y-98920224D01*
X102249694Y-98920229D01*
X102249696Y-98920230D01*
X102544338Y-99077719D01*
X102544340Y-99077719D01*
X102544346Y-99077723D01*
X102853024Y-99205582D01*
X103172749Y-99302569D01*
X103172755Y-99302570D01*
X103172758Y-99302571D01*
X103172769Y-99302574D01*
X103378243Y-99343444D01*
X103500441Y-99367751D01*
X103832944Y-99400500D01*
X103832947Y-99400500D01*
X104167053Y-99400500D01*
X104167056Y-99400500D01*
X104499559Y-99367751D01*
X104661757Y-99335487D01*
X104827230Y-99302574D01*
X104827241Y-99302571D01*
X104827241Y-99302570D01*
X104827251Y-99302569D01*
X105146976Y-99205582D01*
X105455654Y-99077723D01*
X105750315Y-98920224D01*
X106028118Y-98734601D01*
X106286390Y-98522643D01*
X106522643Y-98286390D01*
X106734601Y-98028118D01*
X106920224Y-97750315D01*
X107077723Y-97455654D01*
X107205582Y-97146976D01*
X107302569Y-96827251D01*
X107302571Y-96827241D01*
X107302574Y-96827230D01*
X107357064Y-96553285D01*
X107367751Y-96499559D01*
X107400500Y-96167056D01*
X107400500Y-95832944D01*
X107367751Y-95500441D01*
X107343444Y-95378243D01*
X107302574Y-95172769D01*
X107302571Y-95172758D01*
X107302570Y-95172755D01*
X107302569Y-95172749D01*
X107205582Y-94853024D01*
X107077723Y-94544346D01*
X106920224Y-94249685D01*
X106734601Y-93971882D01*
X106522643Y-93713610D01*
X106522642Y-93713609D01*
X106522638Y-93713604D01*
X106286395Y-93477361D01*
X106028123Y-93265403D01*
X106028122Y-93265402D01*
X106028118Y-93265399D01*
X105750315Y-93079776D01*
X105750310Y-93079773D01*
X105750303Y-93079769D01*
X105455661Y-92922280D01*
X105455656Y-92922278D01*
X105146977Y-92794418D01*
X104827241Y-92697428D01*
X104827230Y-92697425D01*
X104499565Y-92632250D01*
X104499548Y-92632247D01*
X104248108Y-92607483D01*
X104167056Y-92599500D01*
X103832944Y-92599500D01*
X103757982Y-92606883D01*
X103500451Y-92632247D01*
X103500434Y-92632250D01*
X103172769Y-92697425D01*
X103172758Y-92697428D01*
X102853022Y-92794418D01*
X102544343Y-92922278D01*
X102544338Y-92922280D01*
X102249696Y-93079769D01*
X102249678Y-93079780D01*
X101971890Y-93265393D01*
X101971876Y-93265403D01*
X101713604Y-93477361D01*
X101477361Y-93713604D01*
X101265403Y-93971876D01*
X101265393Y-93971890D01*
X101079780Y-94249678D01*
X101079769Y-94249696D01*
X100922280Y-94544338D01*
X100922278Y-94544343D01*
X100794418Y-94853022D01*
X100697428Y-95172758D01*
X100697425Y-95172769D01*
X100632250Y-95500434D01*
X100632247Y-95500451D01*
X100599500Y-95832947D01*
X100000500Y-95832947D01*
X100000500Y-90246530D01*
X101674500Y-90246530D01*
X101674500Y-90453469D01*
X101714868Y-90656412D01*
X101714870Y-90656420D01*
X101794058Y-90847596D01*
X101909024Y-91019657D01*
X102055342Y-91165975D01*
X102055345Y-91165977D01*
X102227402Y-91280941D01*
X102418580Y-91360130D01*
X102621530Y-91400499D01*
X102621534Y-91400500D01*
X102621535Y-91400500D01*
X102828466Y-91400500D01*
X102828467Y-91400499D01*
X103031420Y-91360130D01*
X103222598Y-91280941D01*
X103394655Y-91165977D01*
X103540977Y-91019655D01*
X103655941Y-90847598D01*
X103735130Y-90656420D01*
X103775500Y-90453465D01*
X103775500Y-90246535D01*
X103775499Y-90246530D01*
X104214500Y-90246530D01*
X104214500Y-90453469D01*
X104254868Y-90656412D01*
X104254870Y-90656420D01*
X104334058Y-90847596D01*
X104449024Y-91019657D01*
X104595342Y-91165975D01*
X104595345Y-91165977D01*
X104767402Y-91280941D01*
X104958580Y-91360130D01*
X105161530Y-91400499D01*
X105161534Y-91400500D01*
X105161535Y-91400500D01*
X105368466Y-91400500D01*
X105368467Y-91400499D01*
X105571420Y-91360130D01*
X105762598Y-91280941D01*
X105934655Y-91165977D01*
X106080977Y-91019655D01*
X106195941Y-90847598D01*
X106275130Y-90656420D01*
X106315500Y-90453465D01*
X106315500Y-90246535D01*
X106275130Y-90043580D01*
X106195941Y-89852402D01*
X106080977Y-89680345D01*
X106080975Y-89680342D01*
X105934657Y-89534024D01*
X105848626Y-89476541D01*
X105762598Y-89419059D01*
X105571420Y-89339870D01*
X105571412Y-89339868D01*
X105368469Y-89299500D01*
X105368465Y-89299500D01*
X105161535Y-89299500D01*
X105161530Y-89299500D01*
X104958587Y-89339868D01*
X104958579Y-89339870D01*
X104767403Y-89419058D01*
X104595342Y-89534024D01*
X104449024Y-89680342D01*
X104334058Y-89852403D01*
X104254870Y-90043579D01*
X104254868Y-90043587D01*
X104214500Y-90246530D01*
X103775499Y-90246530D01*
X103735130Y-90043580D01*
X103655941Y-89852402D01*
X103540977Y-89680345D01*
X103540975Y-89680342D01*
X103394657Y-89534024D01*
X103308626Y-89476541D01*
X103222598Y-89419059D01*
X103031420Y-89339870D01*
X103031412Y-89339868D01*
X102828469Y-89299500D01*
X102828465Y-89299500D01*
X102621535Y-89299500D01*
X102621530Y-89299500D01*
X102418587Y-89339868D01*
X102418579Y-89339870D01*
X102227403Y-89419058D01*
X102055342Y-89534024D01*
X101909024Y-89680342D01*
X101794058Y-89852403D01*
X101714870Y-90043579D01*
X101714868Y-90043587D01*
X101674500Y-90246530D01*
X100000500Y-90246530D01*
X100000500Y-86759696D01*
X100002883Y-86735505D01*
X100014218Y-86678519D01*
X100014219Y-86678517D01*
X100032729Y-86633826D01*
X100059524Y-86593724D01*
X100093724Y-86559524D01*
X100133826Y-86532729D01*
X100178514Y-86514219D01*
X100238028Y-86502381D01*
X100262211Y-86500000D01*
X103737789Y-86500000D01*
X103761980Y-86502383D01*
G37*
%TD.AperFunction*%
%TD*%
%TA.AperFunction,Conductor*%
%TO.N,/BUTTON2*%
G36*
X128643039Y-90019685D02*
G01*
X128688794Y-90072489D01*
X128700000Y-90124000D01*
X128700000Y-92000000D01*
X128876000Y-92000000D01*
X128943039Y-92019685D01*
X128988794Y-92072489D01*
X129000000Y-92124000D01*
X129000000Y-92500000D01*
X129005983Y-92527929D01*
X129005991Y-92527962D01*
X129107142Y-92999999D01*
X129107142Y-93000000D01*
X129531636Y-94980970D01*
X129743764Y-95970900D01*
X129744966Y-95977330D01*
X129747576Y-95993676D01*
X129748954Y-96006685D01*
X129749827Y-96023206D01*
X129750000Y-96029749D01*
X129750000Y-97987789D01*
X129747617Y-98011982D01*
X129735781Y-98071482D01*
X129732590Y-98079183D01*
X129732499Y-98084341D01*
X129717267Y-98116179D01*
X129690481Y-98156268D01*
X129656269Y-98190479D01*
X129621975Y-98213394D01*
X129616179Y-98217267D01*
X129571482Y-98235781D01*
X129537857Y-98242469D01*
X129511978Y-98247617D01*
X129487789Y-98250000D01*
X128012211Y-98250000D01*
X127988020Y-98247617D01*
X127973189Y-98244667D01*
X127928518Y-98235781D01*
X127883822Y-98217267D01*
X127843727Y-98190477D01*
X127809522Y-98156272D01*
X127782730Y-98116175D01*
X127764218Y-98071480D01*
X127752383Y-98011980D01*
X127750000Y-97987789D01*
X127750000Y-96250001D01*
X127750000Y-96250000D01*
X127632501Y-96176563D01*
X127632500Y-96176562D01*
X125810801Y-95038000D01*
X125810797Y-95037998D01*
X125750000Y-95000000D01*
X124012211Y-95000000D01*
X123988020Y-94997617D01*
X123973189Y-94994667D01*
X123928518Y-94985781D01*
X123883822Y-94967267D01*
X123843727Y-94940477D01*
X123809522Y-94906272D01*
X123782730Y-94866175D01*
X123764218Y-94821480D01*
X123752383Y-94761980D01*
X123750000Y-94737789D01*
X123750000Y-93101305D01*
X123751864Y-93079887D01*
X123761173Y-93026828D01*
X123775760Y-92986539D01*
X123802574Y-92939823D01*
X123814852Y-92922176D01*
X124166789Y-92499853D01*
X124916316Y-91600418D01*
X124935826Y-91581630D01*
X124989205Y-91540457D01*
X125037993Y-91517606D01*
X125071369Y-91510177D01*
X125103789Y-91502962D01*
X125130729Y-91500000D01*
X126750000Y-91500000D01*
X127250000Y-91000000D01*
X127250000Y-90262210D01*
X127252383Y-90238019D01*
X127264218Y-90178519D01*
X127282729Y-90133826D01*
X127309524Y-90093724D01*
X127343724Y-90059524D01*
X127383826Y-90032729D01*
X127428514Y-90014219D01*
X127488028Y-90002381D01*
X127512211Y-90000000D01*
X128576000Y-90000000D01*
X128643039Y-90019685D01*
G37*
%TD.AperFunction*%
%TD*%
M02*
