M48
; DRILL file {KiCad 9.0.3} date 2025-07-30T10:19:01+0200
; FORMAT={-:-/ absolute / metric / decimal}
; #@! TF.CreationDate,2025-07-30T10:19:01+02:00
; #@! TF.GenerationSoftware,Kicad,Pcbnew,9.0.3
; #@! TF.FileFunction,Plated,1,2,PTH
FMAT,2
METRIC
; #@! TA.AperFunction,Plated,PTH,ViaDrill
T1C0.300
; #@! TA.AperFunction,Plated,PTH,ViaDrill
T2C0.400
; #@! TA.AperFunction,Plated,PTH,ComponentDrill
T3C0.500
; #@! TA.AperFunction,Plated,PTH,ComponentDrill
T4C0.600
; #@! TA.AperFunction,Plated,PTH,ComponentDrill
T5C1.000
; #@! TA.AperFunction,Plated,PTH,ComponentDrill
T6C1.520
; #@! TA.AperFunction,Plated,PTH,ComponentDrill
T7C3.200
%
G90
G05
T1
X116.0Y-63.75
X116.0Y-67.6
X116.0Y-68.8
X118.75Y-66.5
X123.75Y-65.155
X123.75Y-83.75
X126.05Y-65.157
X126.25Y-77.75
X126.75Y-72.75
X126.75Y-84.75
X128.0Y-72.0
X129.0Y-72.0
X130.0Y-72.0
X130.0Y-82.75
X130.6Y-74.5
X131.5Y-75.1
X131.875Y-71.375
X135.25Y-75.1
X135.75Y-74.0
X137.018Y-67.787
X138.0Y-73.25
X138.0Y-75.75
X138.8Y-73.25
X138.8Y-75.75
X142.5Y-83.0
X147.0Y-60.0
X147.0Y-61.562
X152.5Y-75.0
X152.5Y-76.5
T2
X106.25Y-73.5
X109.5Y-52.0
X109.75Y-90.212
X110.5Y-69.287
X111.037Y-66.462
X117.1Y-61.345
X117.85Y-91.1
X117.9Y-84.9
X120.462Y-77.712
X120.5Y-68.75
X124.0Y-62.75
X124.75Y-90.212
X127.0Y-59.75
X132.0Y-62.75
X132.9Y-84.9
X132.9Y-91.1
X133.25Y-68.75
X136.0Y-62.75
X139.5Y-90.212
X140.0Y-62.75
X140.963Y-71.287
X141.0Y-77.75
X146.85Y-86.15
X147.9Y-91.1
X149.0Y-80.25
X149.135Y-73.865
X150.25Y-67.25
X151.75Y-77.5
X152.4Y-73.6
X153.0Y-85.5
X158.75Y-84.75
T3
X101.5Y-69.5
X101.5Y-71.9
X101.5Y-74.25
X101.6Y-54.0
X101.6Y-96.0
X102.303Y-52.303
X102.303Y-55.697
X102.303Y-94.303
X102.303Y-97.697
X104.0Y-51.6
X104.0Y-56.4
X104.0Y-93.6
X104.0Y-98.4
X105.697Y-52.303
X105.697Y-55.697
X105.697Y-94.303
X105.697Y-97.697
X106.4Y-54.0
X106.4Y-96.0
X118.0Y-59.0
X153.6Y-54.0
X153.6Y-96.0
X154.303Y-52.303
X154.303Y-55.697
X154.303Y-94.303
X154.303Y-97.697
X156.0Y-51.6
X156.0Y-56.4
X156.0Y-93.6
X156.0Y-98.4
X157.697Y-52.303
X157.697Y-55.697
X157.697Y-94.303
X157.697Y-97.697
X158.4Y-54.0
X158.4Y-96.0
T5
X102.725Y-77.65
X102.725Y-80.19
X102.725Y-82.73
X102.725Y-85.27
X102.725Y-87.81
X102.725Y-90.35
X105.265Y-77.65
X105.265Y-80.19
X105.265Y-82.73
X105.265Y-85.27
X105.265Y-87.81
X105.265Y-90.35
X113.025Y-68.2
X113.025Y-70.74
X113.025Y-73.28
X113.025Y-75.82
X113.75Y-97.025
X116.25Y-97.025
X128.75Y-97.025
X131.25Y-97.025
X134.84Y-80.5
X137.38Y-80.5
X139.92Y-80.5
X142.46Y-80.5
X143.75Y-97.025
X145.0Y-80.5
X146.25Y-97.025
X147.0Y-52.975
X149.5Y-52.975
X149.65Y-63.5
X157.25Y-63.5
T6
X104.0Y-60.46
X104.0Y-65.54
X114.0Y-54.0
X119.08Y-54.0
X124.75Y-54.0
X129.83Y-54.0
X135.5Y-54.0
X140.58Y-54.0
T7
X104.0Y-54.0
X104.0Y-96.0
X156.0Y-54.0
X156.0Y-96.0
T4
G00X154.757Y-71.68
M15
G01X153.657Y-71.68
M16
G05
G00X154.757Y-80.32
M15
G01X153.657Y-80.32
M16
G05
G00X158.938Y-71.68
M15
G01X157.838Y-71.68
M16
G05
G00X158.938Y-80.32
M15
G01X157.838Y-80.32
M16
G05
M30
