%TF.GenerationSoftware,KiCad,Pcbnew,9.0.3*%
%TF.CreationDate,2025-07-30T10:18:59+02:00*%
%TF.ProjectId,Filament dryer oven control board,46696c61-6d65-46e7-9420-647279657220,1.0*%
%TF.SameCoordinates,Original*%
%TF.FileFunction,Soldermask,Bot*%
%TF.FilePolarity,Negative*%
%FSLAX46Y46*%
G04 Gerber Fmt 4.6, Leading zero omitted, Abs format (unit mm)*
G04 Created by KiCad (PCBNEW 9.0.3) date 2025-07-30 10:18:59*
%MOMM*%
%LPD*%
G01*
G04 APERTURE LIST*
G04 Aperture macros list*
%AMRoundRect*
0 Rectangle with rounded corners*
0 $1 Rounding radius*
0 $2 $3 $4 $5 $6 $7 $8 $9 X,Y pos of 4 corners*
0 Add a 4 corners polygon primitive as box body*
4,1,4,$2,$3,$4,$5,$6,$7,$8,$9,$2,$3,0*
0 Add four circle primitives for the rounded corners*
1,1,$1+$1,$2,$3*
1,1,$1+$1,$4,$5*
1,1,$1+$1,$6,$7*
1,1,$1+$1,$8,$9*
0 Add four rect primitives between the rounded corners*
20,1,$1+$1,$2,$3,$4,$5,0*
20,1,$1+$1,$4,$5,$6,$7,0*
20,1,$1+$1,$6,$7,$8,$9,0*
20,1,$1+$1,$8,$9,$2,$3,0*%
G04 Aperture macros list end*
%ADD10C,0.650000*%
%ADD11O,2.500000X1.250000*%
%ADD12C,0.800000*%
%ADD13C,6.400000*%
%ADD14R,1.000000X1.000000*%
%ADD15R,1.700000X1.700000*%
%ADD16C,1.700000*%
%ADD17R,3.000000X3.000000*%
%ADD18C,3.000000*%
%ADD19R,2.000000X2.000000*%
%ADD20C,2.000000*%
%ADD21RoundRect,0.250000X0.600000X0.750000X-0.600000X0.750000X-0.600000X-0.750000X0.600000X-0.750000X0*%
%ADD22O,1.700000X2.000000*%
%ADD23RoundRect,0.250000X-0.600000X-0.750000X0.600000X-0.750000X0.600000X0.750000X-0.600000X0.750000X0*%
G04 APERTURE END LIST*
D10*
%TO.C,J1*%
X154707500Y-78890000D03*
X154707500Y-73110000D03*
D11*
X154207500Y-80320000D03*
X158387500Y-80320000D03*
X154207500Y-71680000D03*
X158387500Y-71680000D03*
%TD*%
D12*
%TO.C,H2*%
X153600000Y-54000000D03*
X154302944Y-52302944D03*
X154302944Y-55697056D03*
X156000000Y-51600000D03*
D13*
X156000000Y-54000000D03*
D12*
X156000000Y-56400000D03*
X157697056Y-52302944D03*
X157697056Y-55697056D03*
X158400000Y-54000000D03*
%TD*%
D14*
%TO.C,TP1*%
X118000000Y-59000000D03*
%TD*%
D15*
%TO.C,J2*%
X145000000Y-80500000D03*
D16*
X142460000Y-80500000D03*
X139920000Y-80500000D03*
X137380000Y-80500000D03*
X134840000Y-80500000D03*
%TD*%
D12*
%TO.C,H3*%
X153600000Y-96000000D03*
X154302944Y-94302944D03*
X154302944Y-97697056D03*
X156000000Y-93600000D03*
D13*
X156000000Y-96000000D03*
D12*
X156000000Y-98400000D03*
X157697056Y-94302944D03*
X157697056Y-97697056D03*
X158400000Y-96000000D03*
%TD*%
D15*
%TO.C,J10*%
X102725000Y-77650000D03*
D16*
X105265000Y-77650000D03*
X102725000Y-80190000D03*
X105265000Y-80190000D03*
X102725000Y-82730000D03*
X105265000Y-82730000D03*
X102725000Y-85270000D03*
X105265000Y-85270000D03*
X102725000Y-87810000D03*
X105265000Y-87810000D03*
X102725000Y-90350000D03*
X105265000Y-90350000D03*
%TD*%
D12*
%TO.C,H4*%
X101600000Y-96000000D03*
X102302944Y-94302944D03*
X102302944Y-97697056D03*
X104000000Y-93600000D03*
D13*
X104000000Y-96000000D03*
D12*
X104000000Y-98400000D03*
X105697056Y-94302944D03*
X105697056Y-97697056D03*
X106400000Y-96000000D03*
%TD*%
%TO.C,H1*%
X101600000Y-54000000D03*
X102302944Y-52302944D03*
X102302944Y-55697056D03*
X104000000Y-51600000D03*
D13*
X104000000Y-54000000D03*
D12*
X104000000Y-56400000D03*
X105697056Y-52302944D03*
X105697056Y-55697056D03*
X106400000Y-54000000D03*
%TD*%
D17*
%TO.C,J5*%
X124750000Y-54000000D03*
D18*
X129830000Y-54000000D03*
%TD*%
D15*
%TO.C,U5*%
X113025000Y-68200000D03*
D16*
X113025000Y-70740000D03*
X113025000Y-73280000D03*
X113025000Y-75820000D03*
%TD*%
D14*
%TO.C,TP3*%
X101500000Y-69500000D03*
%TD*%
D19*
%TO.C,BZ1*%
X157250000Y-63500000D03*
D20*
X149650000Y-63500000D03*
%TD*%
D21*
%TO.C,J8*%
X131250000Y-97025000D03*
D22*
X128750000Y-97025000D03*
%TD*%
D21*
%TO.C,J7*%
X116250000Y-97025000D03*
D22*
X113750000Y-97025000D03*
%TD*%
D23*
%TO.C,J11*%
X147000000Y-52975000D03*
D22*
X149500000Y-52975000D03*
%TD*%
D17*
%TO.C,J4*%
X104000000Y-65540000D03*
D18*
X104000000Y-60460000D03*
%TD*%
D14*
%TO.C,TP4*%
X101500000Y-74250000D03*
%TD*%
D17*
%TO.C,J6*%
X135500000Y-54000000D03*
D18*
X140580000Y-54000000D03*
%TD*%
D14*
%TO.C,TP2*%
X101500000Y-71900000D03*
%TD*%
D17*
%TO.C,J3*%
X114000000Y-54000000D03*
D18*
X119080000Y-54000000D03*
%TD*%
D21*
%TO.C,J9*%
X146250000Y-97025000D03*
D22*
X143750000Y-97025000D03*
%TD*%
M02*
