M48
; DRILL file {KiCad 9.0.2} date 2025-06-25T14:56:58+0200
; FORMAT={-:-/ absolute / inch / decimal}
; #@! TF.CreationDate,2025-06-25T14:56:58+02:00
; #@! TF.GenerationSoftware,Kicad,Pcbnew,9.0.2
; #@! TF.FileFunction,Plated,1,2,PTH
FMAT,2
INCH
; #@! TA.AperFunction,Plated,PTH,ViaDrill
T1C0.0118
; #@! TA.AperFunction,Plated,PTH,ViaDrill
T2C0.0157
; #@! TA.AperFunction,Plated,PTH,ComponentDrill
T3C0.0197
; #@! TA.AperFunction,Plated,PTH,ComponentDrill
T4C0.0236
; #@! TA.AperFunction,Plated,PTH,ComponentDrill
T5C0.0394
; #@! TA.AperFunction,Plated,PTH,ComponentDrill
T6C0.0598
; #@! TA.AperFunction,Plated,PTH,ComponentDrill
T7C0.1260
%
G90
G05
T1
X4.5669Y-2.5098
X4.5669Y-2.6614
X4.5669Y-2.7087
X4.6752Y-2.6181
X4.872Y-2.5652
X4.872Y-3.2972
X4.9626Y-2.5652
X4.9705Y-3.061
X4.9902Y-2.8642
X4.9902Y-3.3366
X5.0394Y-2.8346
X5.0787Y-2.8346
X5.1181Y-2.8346
X5.1181Y-3.2579
X5.1417Y-2.9331
X5.1772Y-2.9567
X5.1919Y-2.81
X5.3248Y-2.9567
X5.3445Y-2.9134
X5.3944Y-2.6688
X5.4331Y-2.8839
X5.4331Y-2.9823
X5.4646Y-2.8839
X5.4646Y-2.9823
X5.6102Y-3.2677
X5.7874Y-2.3622
X5.7874Y-2.4237
X6.0039Y-2.9528
X6.0039Y-3.0118
T2
X4.1831Y-2.8937
X4.311Y-2.0472
X4.3209Y-3.5517
X4.3504Y-2.7279
X4.3716Y-2.6166
X4.6102Y-2.4152
X4.6398Y-3.5866
X4.6417Y-3.3425
X4.7426Y-3.0595
X4.7441Y-2.7067
X4.8819Y-2.4705
X4.9114Y-3.5517
X5.0Y-2.3524
X5.1969Y-2.4705
X5.2323Y-3.3425
X5.2323Y-3.5866
X5.2461Y-2.7067
X5.3543Y-2.4705
X5.4921Y-3.5517
X5.5118Y-2.4705
X5.5497Y-2.8066
X5.5512Y-3.061
X5.7815Y-3.3917
X5.8228Y-3.5866
X5.8661Y-3.1594
X5.8715Y-2.9081
X5.9154Y-2.6476
X5.9744Y-3.0512
X6.0Y-2.8976
X6.0236Y-3.3661
X6.25Y-3.3366
T3
X3.9961Y-2.7362
X3.9961Y-2.8307
X3.9961Y-2.9232
X4.0Y-2.126
X4.0Y-3.7795
X4.0277Y-2.0592
X4.0277Y-2.1928
X4.0277Y-3.7127
X4.0277Y-3.8463
X4.0945Y-2.0315
X4.0945Y-2.2205
X4.0945Y-3.685
X4.0945Y-3.874
X4.1613Y-2.0592
X4.1613Y-2.1928
X4.1613Y-3.7127
X4.1613Y-3.8463
X4.189Y-2.126
X4.189Y-3.7795
X4.6457Y-2.3228
X6.0472Y-2.126
X6.0472Y-3.7795
X6.0749Y-2.0592
X6.0749Y-2.1928
X6.0749Y-3.7127
X6.0749Y-3.8463
X6.1417Y-2.0315
X6.1417Y-2.2205
X6.1417Y-3.685
X6.1417Y-3.874
X6.2085Y-2.0592
X6.2085Y-2.1928
X6.2085Y-3.7127
X6.2085Y-3.8463
X6.2362Y-2.126
X6.2362Y-3.7795
T5
X4.0443Y-3.0571
X4.0443Y-3.1571
X4.0443Y-3.2571
X4.0443Y-3.3571
X4.0443Y-3.4571
X4.0443Y-3.5571
X4.1443Y-3.0571
X4.1443Y-3.1571
X4.1443Y-3.2571
X4.1443Y-3.3571
X4.1443Y-3.4571
X4.1443Y-3.5571
X4.4498Y-2.685
X4.4498Y-2.785
X4.4498Y-2.885
X4.4498Y-2.985
X4.4783Y-3.8199
X4.5768Y-3.8199
X5.0689Y-3.8199
X5.1673Y-3.8199
X5.3087Y-3.1693
X5.4087Y-3.1693
X5.5087Y-3.1693
X5.6087Y-3.1693
X5.6594Y-3.8199
X5.7087Y-3.1693
X5.7579Y-3.8199
X5.7874Y-2.0856
X5.8858Y-2.0856
X5.8917Y-2.5
X6.1909Y-2.5
T6
X4.0945Y-2.3803
X4.0945Y-2.5803
X4.4882Y-2.126
X4.6882Y-2.126
X4.9114Y-2.126
X5.1114Y-2.126
X5.3346Y-2.126
X5.5346Y-2.126
T7
X4.0945Y-2.126
X4.0945Y-3.7795
X6.1417Y-2.126
X6.1417Y-3.7795
T4
G00X6.0928Y-2.822
M15
G01X6.0495Y-2.822
M16
G05
G00X6.0928Y-3.1622
M15
G01X6.0495Y-3.1622
M16
G05
G00X6.2574Y-2.822
M15
G01X6.2141Y-2.822
M16
G05
G00X6.2574Y-3.1622
M15
G01X6.2141Y-3.1622
M16
G05
M30
