%TF.GenerationSoftware,KiCad,Pcbnew,9.0.2*%
%TF.CreationDate,2025-06-25T14:56:52+02:00*%
%TF.ProjectId,Filament dryer oven control board,46696c61-6d65-46e7-9420-647279657220,1.0*%
%TF.SameCoordinates,Original*%
%TF.FileFunction,Soldermask,Top*%
%TF.FilePolarity,Negative*%
%FSLAX46Y46*%
G04 Gerber Fmt 4.6, Leading zero omitted, Abs format (unit mm)*
G04 Created by KiCad (PCBNEW 9.0.2) date 2025-06-25 14:56:52*
%MOMM*%
%LPD*%
G01*
G04 APERTURE LIST*
G04 Aperture macros list*
%AMRoundRect*
0 Rectangle with rounded corners*
0 $1 Rounding radius*
0 $2 $3 $4 $5 $6 $7 $8 $9 X,Y pos of 4 corners*
0 Add a 4 corners polygon primitive as box body*
4,1,4,$2,$3,$4,$5,$6,$7,$8,$9,$2,$3,0*
0 Add four circle primitives for the rounded corners*
1,1,$1+$1,$2,$3*
1,1,$1+$1,$4,$5*
1,1,$1+$1,$6,$7*
1,1,$1+$1,$8,$9*
0 Add four rect primitives between the rounded corners*
20,1,$1+$1,$2,$3,$4,$5,0*
20,1,$1+$1,$4,$5,$6,$7,0*
20,1,$1+$1,$6,$7,$8,$9,0*
20,1,$1+$1,$8,$9,$2,$3,0*%
%AMFreePoly0*
4,1,23,0.500000,-0.750000,0.000000,-0.750000,0.000000,-0.745722,-0.065263,-0.745722,-0.191342,-0.711940,-0.304381,-0.646677,-0.396677,-0.554381,-0.461940,-0.441342,-0.495722,-0.315263,-0.495722,-0.250000,-0.500000,-0.250000,-0.500000,0.250000,-0.495722,0.250000,-0.495722,0.315263,-0.461940,0.441342,-0.396677,0.554381,-0.304381,0.646677,-0.191342,0.711940,-0.065263,0.745722,0.000000,0.745722,
0.000000,0.750000,0.500000,0.750000,0.500000,-0.750000,0.500000,-0.750000,$1*%
%AMFreePoly1*
4,1,23,0.000000,0.745722,0.065263,0.745722,0.191342,0.711940,0.304381,0.646677,0.396677,0.554381,0.461940,0.441342,0.495722,0.315263,0.495722,0.250000,0.500000,0.250000,0.500000,-0.250000,0.495722,-0.250000,0.495722,-0.315263,0.461940,-0.441342,0.396677,-0.554381,0.304381,-0.646677,0.191342,-0.711940,0.065263,-0.745722,0.000000,-0.745722,0.000000,-0.750000,-0.500000,-0.750000,
-0.500000,0.750000,0.000000,0.750000,0.000000,0.745722,0.000000,0.745722,$1*%
G04 Aperture macros list end*
%ADD10C,0.650000*%
%ADD11R,1.150000X0.600000*%
%ADD12R,1.150000X0.300000*%
%ADD13RoundRect,0.250000X0.687500X0.250000X-0.687500X0.250000X-0.687500X-0.250000X0.687500X-0.250000X0*%
%ADD14O,2.500000X1.250000*%
%ADD15C,0.800000*%
%ADD16C,6.400000*%
%ADD17RoundRect,0.250000X0.337500X0.475000X-0.337500X0.475000X-0.337500X-0.475000X0.337500X-0.475000X0*%
%ADD18RoundRect,0.250000X-0.450000X0.350000X-0.450000X-0.350000X0.450000X-0.350000X0.450000X0.350000X0*%
%ADD19R,1.000000X1.000000*%
%ADD20R,1.700000X1.700000*%
%ADD21C,1.700000*%
%ADD22R,1.300000X1.200000*%
%ADD23R,1.200000X0.900000*%
%ADD24RoundRect,0.150000X0.150000X-0.587500X0.150000X0.587500X-0.150000X0.587500X-0.150000X-0.587500X0*%
%ADD25RoundRect,0.250000X0.300000X-0.300000X0.300000X0.300000X-0.300000X0.300000X-0.300000X-0.300000X0*%
%ADD26RoundRect,0.250000X0.450000X-0.350000X0.450000X0.350000X-0.450000X0.350000X-0.450000X-0.350000X0*%
%ADD27RoundRect,0.150000X0.512500X0.150000X-0.512500X0.150000X-0.512500X-0.150000X0.512500X-0.150000X0*%
%ADD28R,3.000000X3.000000*%
%ADD29C,3.000000*%
%ADD30RoundRect,0.250000X0.325000X0.450000X-0.325000X0.450000X-0.325000X-0.450000X0.325000X-0.450000X0*%
%ADD31R,2.000000X2.000000*%
%ADD32C,2.000000*%
%ADD33RoundRect,0.250000X-0.475000X0.337500X-0.475000X-0.337500X0.475000X-0.337500X0.475000X0.337500X0*%
%ADD34RoundRect,0.250000X0.350000X0.450000X-0.350000X0.450000X-0.350000X-0.450000X0.350000X-0.450000X0*%
%ADD35R,1.100000X1.800000*%
%ADD36RoundRect,0.250000X-0.337500X-0.475000X0.337500X-0.475000X0.337500X0.475000X-0.337500X0.475000X0*%
%ADD37RoundRect,0.250000X0.600000X0.750000X-0.600000X0.750000X-0.600000X-0.750000X0.600000X-0.750000X0*%
%ADD38O,1.700000X2.000000*%
%ADD39RoundRect,0.250000X-0.450000X0.325000X-0.450000X-0.325000X0.450000X-0.325000X0.450000X0.325000X0*%
%ADD40RoundRect,0.250000X-0.600000X-0.750000X0.600000X-0.750000X0.600000X0.750000X-0.600000X0.750000X0*%
%ADD41RoundRect,0.250000X-0.350000X-0.450000X0.350000X-0.450000X0.350000X0.450000X-0.350000X0.450000X0*%
%ADD42RoundRect,0.250000X0.475000X-0.337500X0.475000X0.337500X-0.475000X0.337500X-0.475000X-0.337500X0*%
%ADD43RoundRect,0.150000X0.675000X0.150000X-0.675000X0.150000X-0.675000X-0.150000X0.675000X-0.150000X0*%
%ADD44RoundRect,0.150000X-0.725000X-0.150000X0.725000X-0.150000X0.725000X0.150000X-0.725000X0.150000X0*%
%ADD45RoundRect,0.075000X-0.662500X-0.075000X0.662500X-0.075000X0.662500X0.075000X-0.662500X0.075000X0*%
%ADD46RoundRect,0.075000X-0.075000X-0.662500X0.075000X-0.662500X0.075000X0.662500X-0.075000X0.662500X0*%
%ADD47FreePoly0,0.000000*%
%ADD48FreePoly1,0.000000*%
G04 APERTURE END LIST*
%TO.C,JP1*%
G36*
X148350000Y-78000000D02*
G01*
X148650000Y-78000000D01*
X148650000Y-79500000D01*
X148350000Y-79500000D01*
X148350000Y-78000000D01*
G37*
%TD*%
D10*
%TO.C,J1*%
X154707500Y-78890000D03*
X154707500Y-73110000D03*
D11*
X153632500Y-79200000D03*
X153632500Y-78400000D03*
D12*
X153632500Y-77750000D03*
X153632500Y-77250000D03*
X153632500Y-76750000D03*
X153632500Y-76250000D03*
X153632500Y-75750000D03*
X153632500Y-75250000D03*
X153632500Y-74750000D03*
X153632500Y-74250000D03*
D11*
X153632500Y-73600000D03*
X153632500Y-72800000D03*
D13*
X154187500Y-81150000D03*
X158437500Y-81150000D03*
D14*
X154207500Y-80320000D03*
X158387500Y-80320000D03*
X154207500Y-71680000D03*
X158387500Y-71680000D03*
D13*
X154237500Y-70850000D03*
X158387500Y-70850000D03*
%TD*%
D15*
%TO.C,H2*%
X153600000Y-54000000D03*
X154302944Y-52302944D03*
X154302944Y-55697056D03*
X156000000Y-51600000D03*
D16*
X156000000Y-54000000D03*
D15*
X156000000Y-56400000D03*
X157697056Y-52302944D03*
X157697056Y-55697056D03*
X158400000Y-54000000D03*
%TD*%
D17*
%TO.C,C8*%
X105537500Y-69500000D03*
X103462500Y-69500000D03*
%TD*%
D18*
%TO.C,R14*%
X118500000Y-76500000D03*
X118500000Y-78500000D03*
%TD*%
D19*
%TO.C,TP1*%
X118000000Y-59000000D03*
%TD*%
D18*
%TO.C,R13*%
X124500000Y-76750000D03*
X124500000Y-78750000D03*
%TD*%
D20*
%TO.C,J2*%
X145000000Y-80500000D03*
D21*
X142460000Y-80500000D03*
X139920000Y-80500000D03*
X137380000Y-80500000D03*
X134840000Y-80500000D03*
%TD*%
D15*
%TO.C,H3*%
X153600000Y-96000000D03*
X154302944Y-94302944D03*
X154302944Y-97697056D03*
X156000000Y-93600000D03*
D16*
X156000000Y-96000000D03*
D15*
X156000000Y-98400000D03*
X157697056Y-94302944D03*
X157697056Y-97697056D03*
X158400000Y-96000000D03*
%TD*%
D22*
%TO.C,SW1*%
X156656500Y-87325000D03*
X156656500Y-90675000D03*
D23*
X158206500Y-86700000D03*
X158206500Y-91300000D03*
%TD*%
D17*
%TO.C,C7*%
X143037500Y-76500000D03*
X140962500Y-76500000D03*
%TD*%
D24*
%TO.C,Q3*%
X133300000Y-62687500D03*
X135200000Y-62687500D03*
X134250000Y-60812500D03*
%TD*%
D25*
%TO.C,D3*%
X109500000Y-63400000D03*
X109500000Y-60600000D03*
%TD*%
D26*
%TO.C,R11*%
X124750000Y-96000000D03*
X124750000Y-94000000D03*
%TD*%
%TO.C,R16*%
X109500000Y-58750000D03*
X109500000Y-56750000D03*
%TD*%
D27*
%TO.C,U3*%
X107887500Y-73450000D03*
X107887500Y-71550000D03*
X105612500Y-72500000D03*
%TD*%
D18*
%TO.C,R2*%
X157500000Y-82750000D03*
X157500000Y-84750000D03*
%TD*%
D20*
%TO.C,J10*%
X102725000Y-77650000D03*
D21*
X105265000Y-77650000D03*
X102725000Y-80190000D03*
X105265000Y-80190000D03*
X102725000Y-82730000D03*
X105265000Y-82730000D03*
X102725000Y-85270000D03*
X105265000Y-85270000D03*
X102725000Y-87810000D03*
X105265000Y-87810000D03*
X102725000Y-90350000D03*
X105265000Y-90350000D03*
%TD*%
D17*
%TO.C,C1*%
X122537500Y-74500000D03*
X120462500Y-74500000D03*
%TD*%
D15*
%TO.C,H4*%
X101600000Y-96000000D03*
X102302944Y-94302944D03*
X102302944Y-97697056D03*
X104000000Y-93600000D03*
D16*
X104000000Y-96000000D03*
D15*
X104000000Y-98400000D03*
X105697056Y-94302944D03*
X105697056Y-97697056D03*
X106400000Y-96000000D03*
%TD*%
%TO.C,H1*%
X101600000Y-54000000D03*
X102302944Y-52302944D03*
X102302944Y-55697056D03*
X104000000Y-51600000D03*
D16*
X104000000Y-54000000D03*
D15*
X104000000Y-56400000D03*
X105697056Y-52302944D03*
X105697056Y-55697056D03*
X106400000Y-54000000D03*
%TD*%
D28*
%TO.C,J5*%
X124750000Y-54000000D03*
D29*
X129830000Y-54000000D03*
%TD*%
D30*
%TO.C,D1*%
X127025000Y-61000000D03*
X124975000Y-61000000D03*
%TD*%
D20*
%TO.C,U5*%
X113025000Y-68200000D03*
D21*
X113025000Y-70740000D03*
X113025000Y-73280000D03*
X113025000Y-75820000D03*
%TD*%
D19*
%TO.C,TP3*%
X101500000Y-69500000D03*
%TD*%
D31*
%TO.C,BZ1*%
X157250000Y-63500000D03*
D32*
X149650000Y-63500000D03*
%TD*%
D33*
%TO.C,C5*%
X120500000Y-70462500D03*
X120500000Y-72537500D03*
%TD*%
D24*
%TO.C,Q2*%
X129300000Y-62687500D03*
X131200000Y-62687500D03*
X130250000Y-60812500D03*
%TD*%
D34*
%TO.C,R9*%
X135250000Y-64750000D03*
X133250000Y-64750000D03*
%TD*%
D18*
%TO.C,R3*%
X155250000Y-82750000D03*
X155250000Y-84750000D03*
%TD*%
D33*
%TO.C,C2*%
X151750000Y-83462500D03*
X151750000Y-85537500D03*
%TD*%
D26*
%TO.C,R5*%
X118000000Y-70250000D03*
X118000000Y-68250000D03*
%TD*%
D35*
%TO.C,SW2*%
X113150000Y-91100000D03*
X113150000Y-84900000D03*
X116850000Y-91100000D03*
X116850000Y-84900000D03*
%TD*%
D36*
%TO.C,C15*%
X120712500Y-60750000D03*
X122787500Y-60750000D03*
%TD*%
D37*
%TO.C,J8*%
X131250000Y-97025000D03*
D38*
X128750000Y-97025000D03*
%TD*%
D37*
%TO.C,J7*%
X116250000Y-97025000D03*
D38*
X113750000Y-97025000D03*
%TD*%
D39*
%TO.C,D4*%
X109500000Y-52975000D03*
X109500000Y-55025000D03*
%TD*%
D35*
%TO.C,SW4*%
X143150000Y-91100000D03*
X143150000Y-84900000D03*
X146850000Y-91100000D03*
X146850000Y-84900000D03*
%TD*%
D33*
%TO.C,C3*%
X122500000Y-70462500D03*
X122500000Y-72537500D03*
%TD*%
D40*
%TO.C,J11*%
X147000000Y-52975000D03*
D38*
X149500000Y-52975000D03*
%TD*%
D41*
%TO.C,R15*%
X120750000Y-62750000D03*
X122750000Y-62750000D03*
%TD*%
D26*
%TO.C,R6*%
X116000000Y-72750000D03*
X116000000Y-70750000D03*
%TD*%
D28*
%TO.C,J4*%
X104000000Y-65540000D03*
D29*
X104000000Y-60460000D03*
%TD*%
D19*
%TO.C,TP4*%
X101500000Y-74250000D03*
%TD*%
D33*
%TO.C,C11*%
X109250000Y-67212500D03*
X109250000Y-69287500D03*
%TD*%
D42*
%TO.C,C14*%
X141000000Y-92287500D03*
X141000000Y-90212500D03*
%TD*%
D26*
%TO.C,R12*%
X139750000Y-96000000D03*
X139750000Y-94000000D03*
%TD*%
D17*
%TO.C,C16*%
X122537500Y-76500000D03*
X120462500Y-76500000D03*
%TD*%
D35*
%TO.C,SW3*%
X128150000Y-91100000D03*
X128150000Y-84900000D03*
X131850000Y-91100000D03*
X131850000Y-84900000D03*
%TD*%
D33*
%TO.C,C10*%
X110000000Y-71462500D03*
X110000000Y-73537500D03*
%TD*%
D28*
%TO.C,J6*%
X135500000Y-54000000D03*
D29*
X140580000Y-54000000D03*
%TD*%
D25*
%TO.C,D2*%
X151750000Y-81650000D03*
X151750000Y-78850000D03*
%TD*%
D34*
%TO.C,R4*%
X116000000Y-59000000D03*
X114000000Y-59000000D03*
%TD*%
D43*
%TO.C,U2*%
X150375000Y-76405000D03*
X150375000Y-75135000D03*
X150375000Y-73865000D03*
X150375000Y-72595000D03*
X145125000Y-72595000D03*
X145125000Y-73865000D03*
X145125000Y-75135000D03*
X145125000Y-76405000D03*
%TD*%
D36*
%TO.C,C9*%
X108962500Y-65250000D03*
X111037500Y-65250000D03*
%TD*%
D44*
%TO.C,U4*%
X113425000Y-61345000D03*
X113425000Y-62615000D03*
X113425000Y-63885000D03*
X113425000Y-65155000D03*
X118575000Y-65155000D03*
X118575000Y-63885000D03*
X118575000Y-62615000D03*
X118575000Y-61345000D03*
%TD*%
D19*
%TO.C,TP2*%
X101500000Y-71900000D03*
%TD*%
D42*
%TO.C,C12*%
X111000000Y-92287500D03*
X111000000Y-90212500D03*
%TD*%
D45*
%TO.C,U1*%
X125337500Y-69750000D03*
X125337500Y-70250000D03*
X125337500Y-70750000D03*
X125337500Y-71250000D03*
X125337500Y-71750000D03*
X125337500Y-72250000D03*
X125337500Y-72750000D03*
X125337500Y-73250000D03*
X125337500Y-73750000D03*
X125337500Y-74250000D03*
X125337500Y-74750000D03*
X125337500Y-75250000D03*
D46*
X126750000Y-76662500D03*
X127250000Y-76662500D03*
X127750000Y-76662500D03*
X128250000Y-76662500D03*
X128750000Y-76662500D03*
X129250000Y-76662500D03*
X129750000Y-76662500D03*
X130250000Y-76662500D03*
X130750000Y-76662500D03*
X131250000Y-76662500D03*
X131750000Y-76662500D03*
X132250000Y-76662500D03*
D45*
X133662500Y-75250000D03*
X133662500Y-74750000D03*
X133662500Y-74250000D03*
X133662500Y-73750000D03*
X133662500Y-73250000D03*
X133662500Y-72750000D03*
X133662500Y-72250000D03*
X133662500Y-71750000D03*
X133662500Y-71250000D03*
X133662500Y-70750000D03*
X133662500Y-70250000D03*
X133662500Y-69750000D03*
D46*
X132250000Y-68337500D03*
X131750000Y-68337500D03*
X131250000Y-68337500D03*
X130750000Y-68337500D03*
X130250000Y-68337500D03*
X129750000Y-68337500D03*
X129250000Y-68337500D03*
X128750000Y-68337500D03*
X128250000Y-68337500D03*
X127750000Y-68337500D03*
X127250000Y-68337500D03*
X126750000Y-68337500D03*
%TD*%
D17*
%TO.C,C6*%
X143037500Y-72500000D03*
X140962500Y-72500000D03*
%TD*%
D28*
%TO.C,J3*%
X114000000Y-54000000D03*
D29*
X119080000Y-54000000D03*
%TD*%
D47*
%TO.C,JP1*%
X147850000Y-78750000D03*
D48*
X149150000Y-78750000D03*
%TD*%
D34*
%TO.C,R7*%
X139250000Y-64750000D03*
X137250000Y-64750000D03*
%TD*%
%TO.C,R8*%
X131250000Y-64750000D03*
X129250000Y-64750000D03*
%TD*%
D42*
%TO.C,C13*%
X126000000Y-92287500D03*
X126000000Y-90212500D03*
%TD*%
D24*
%TO.C,Q1*%
X137300000Y-62687500D03*
X139200000Y-62687500D03*
X138250000Y-60812500D03*
%TD*%
D37*
%TO.C,J9*%
X146250000Y-97025000D03*
D38*
X143750000Y-97025000D03*
%TD*%
D26*
%TO.C,R1*%
X127250000Y-65000000D03*
X127250000Y-63000000D03*
%TD*%
%TO.C,R10*%
X109750000Y-96000000D03*
X109750000Y-94000000D03*
%TD*%
D33*
%TO.C,C4*%
X149750000Y-83462500D03*
X149750000Y-85537500D03*
%TD*%
M02*
